<?xml version="1.0" encoding="UTF-8" standalone="no"?>
<!-- Created with Inkscape (http://www.inkscape.org/) -->

<svg
   width="212.27951mm"
   height="212.26263mm"
   viewBox="0 0 215.24019 215.22308"
   version="1.1"
   id="svg5"
   xml:space="preserve"
   inkscape:version="1.2.2 (b0a8486541, 2022-12-01)"
   sodipodi:docname="logoIn.svg"
   xmlns:inkscape="http://www.inkscape.org/namespaces/inkscape"
   xmlns:sodipodi="http://sodipodi.sourceforge.net/DTD/sodipodi-0.dtd"
   xmlns:xlink="http://www.w3.org/1999/xlink"
   xmlns="http://www.w3.org/2000/svg"
   xmlns:svg="http://www.w3.org/2000/svg"><sodipodi:namedview
     id="namedview7"
     pagecolor="#ffffff"
     bordercolor="#000000"
     borderopacity="0.25"
     inkscape:showpageshadow="2"
     inkscape:pageopacity="0.0"
     inkscape:pagecheckerboard="true"
     inkscape:deskcolor="#d1d1d1"
     inkscape:document-units="mm"
     showgrid="false"
     showguides="true"
     inkscape:zoom="0.125"
     inkscape:cx="-3668"
     inkscape:cy="392"
     inkscape:window-width="1920"
     inkscape:window-height="1007"
     inkscape:window-x="0"
     inkscape:window-y="0"
     inkscape:window-maximized="1"
     inkscape:current-layer="layer1"><sodipodi:guide
       position="-854.20949,215.22307"
       orientation="0,-1"
       id="guide1498"
       inkscape:locked="false" /><sodipodi:guide
       position="-869.37961,-0.14504306"
       orientation="0,-1"
       id="guide1500"
       inkscape:locked="false" /><sodipodi:guide
       position="-1069.3213,215.22307"
       orientation="1,0"
       id="guide1694"
       inkscape:locked="false" /><sodipodi:guide
       position="-854.20949,215.22307"
       orientation="1,0"
       id="guide1696"
       inkscape:locked="false" /><sodipodi:guide
       position="-639.09769,206.11757"
       orientation="1,0"
       id="guide1698"
       inkscape:locked="false" /><sodipodi:guide
       position="-430.57633,33.682082"
       orientation="1,0"
       id="guide1700"
       inkscape:locked="false" /><sodipodi:guide
       position="-215.11189,205.02868"
       orientation="1,0"
       id="guide1702"
       inkscape:locked="false" /><sodipodi:guide
       position="-4.9999998e-05,115.96189"
       orientation="1,0"
       id="guide1704"
       inkscape:locked="false" /><sodipodi:guide
       position="-1284.4331,107.53902"
       orientation="1,0"
       id="guide1710"
       inkscape:locked="false" /></sodipodi:namedview><defs
     id="defs2"><linearGradient
       inkscape:collect="always"
       id="linearGradient1153"><stop
         style="stop-color:#000000;stop-opacity:1;"
         offset="0"
         id="stop1149" /><stop
         style="stop-color:#000000;stop-opacity:0;"
         offset="1"
         id="stop1151" /></linearGradient><rect
       x="953.69067"
       y="445.91483"
       width="224.24619"
       height="73.459953"
       id="rect1046" /><rect
       x="1001.3752"
       y="105.67924"
       width="369.87732"
       height="174.30748"
       id="rect990" /><rect
       x="961.42328"
       y="123.72203"
       width="289.97351"
       height="175.27287"
       id="rect984" /><rect
       x="895.69598"
       y="161.09641"
       width="456.22501"
       height="220.37987"
       id="rect978" /><rect
       x="1001.3752"
       y="105.67924"
       width="369.87732"
       height="174.30748"
       id="rect1355" /><rect
       x="953.69067"
       y="445.91483"
       width="224.24619"
       height="73.459953"
       id="rect1357" /><rect
       x="1001.3752"
       y="105.67924"
       width="369.87732"
       height="174.30748"
       id="rect1369" /><rect
       x="953.69067"
       y="445.91483"
       width="224.24619"
       height="73.459953"
       id="rect1371" /><rect
       x="1001.3752"
       y="105.67924"
       width="369.87732"
       height="174.30748"
       id="rect410" /><rect
       x="953.69067"
       y="445.91483"
       width="224.24619"
       height="73.459953"
       id="rect412" /><linearGradient
       inkscape:collect="always"
       xlink:href="#linearGradient1153"
       id="linearGradient1157"
       x1="566.68475"
       y1="-151.12093"
       x2="703.54126"
       y2="-151.12093"
       gradientUnits="userSpaceOnUse" /></defs><g
     inkscape:label="Calque 1"
     inkscape:groupmode="layer"
     id="layer1"
     transform="translate(-1373.9246,212.79412)"><path
       id="path3057"
       style="display:inline;stroke-width:0.480448"
       d="m 1399.7676,-212.79412 a 25.843264,25.843264 0 0 0 -25.843,25.8307 c 0,14.26924 11.5737,26.08821 25.843,26.08821 14.2644,0 25.8434,-11.81897 25.8434,-26.08821 a 25.843264,25.843264 0 0 0 -25.8434,-25.8307 z m 135.9331,67.91754 c -21.7114,0 -36.2642,11.91545 -42.2217,23.20593 h -0.6249 v -19.60228 H 1450.056 V 2.428964 h 44.5762 v -71.15437 c 0,-18.7374 3.555,-36.850114 26.7558,-36.850114 22.8644,0 23.2011,21.379834 23.2011,38.051344 v 69.95314 h 44.5277 0.048 v -78.93748 c 0,-38.627914 -8.3021,-68.368064 -53.4641,-68.368064 z m -158.221,3.60365 V 2.428964 h 44.6242 V -141.27293 Z m 196.0084,27.84978 c 0.4565,-10e-4 0.9594,0.24259 1.5291,0.73683 0.7303,0.63382 1.4129,2.29493 1.5633,3.80359 0.054,0.54275 -0.077,2.67134 -0.2047,3.31202 -0.1545,0.77789 -0.1594,0.78215 -1.1234,0.95435 -1.0103,0.18049 -2.8935,0.2596 -3.6218,0.15249 -0.6427,-0.0946 -0.8056,-0.23888 -0.7704,-0.68298 0.015,-0.19355 0.07,-0.94592 0.1215,-1.67201 0.2437,-3.43366 0.866,-5.71181 1.7307,-6.33664 0.2451,-0.1771 0.5019,-0.26671 0.7757,-0.26765 z m 0.6958,10.43135 c 0.357,-0.011 0.5789,0.0307 0.8509,0.14287 0.4633,0.191 0.463,0.19127 0.4554,0.44146 0,0.13758 -0.1634,0.8792 -0.3541,1.64802 v 5.2e-4 c -0.1906,0.768854 -0.4084,1.526904 -0.4841,1.684274 -0.3026,0.62925 -0.9032,0.76043 -1.9439,0.4244 -0.5415,-0.17486 -0.7776,-0.30105 -1.1159,-0.5966 -1.0132,-0.884534 -1.3542,-2.052764 -0.7901,-2.707424 0.4683,-0.54352 1.3979,-0.85956 2.9729,-1.00981 0.1559,-0.0149 0.2899,-0.024 0.4089,-0.0276 z m -12.1614,1.6048 c 0.1786,0.003 0.4064,0.0332 0.7133,0.0709 l 1.0482,0.12902 0.2938,0.39508 c 0.392,0.52711 1.0017,2.042784 1.2876,3.200584 0.2367,0.9584 0.3489,2.1181 0.4116,4.25464 0.019,0.6605 0.011,1.2296 -0.02,1.26467 -0.03,0.0351 -0.5903,0.0654 -1.2444,0.0678 -1.9153,0.006 -2.7653,-0.10556 -3.7017,-0.48945 -0.8004,-0.32807 -0.9715,-0.57335 -1.0781,-1.54617 -0.248,-2.26257 0.076,-3.96202 1.1751,-6.164974 0.4821,-0.96624 0.5783,-1.1927 1.1143,-1.18203 z m 19.2631,8.806274 c 0.078,0.008 0.1402,0.0368 0.1941,0.0832 0.094,0.0813 0.34,0.58349 0.546,1.1159 1.0603,2.74129 1.1242,3.59612 0.491,6.54511 -0.1498,0.69796 -0.3198,1.36199 -0.378,1.4758 -0.099,0.19389 -0.2195,0.19292 -1.9156,-0.017 -1.9369,-0.23977 -2.5358,-0.35666 -2.7437,-0.53582 -0.1666,-0.14355 -0.1466,-0.68455 0.096,-2.57785 0.2365,-1.84618 0.433,-2.73956 0.812,-3.69642 0.475,-1.199 0.6099,-1.36432 1.5014,-1.84102 0.7782,-0.41607 1.1623,-0.57614 1.3969,-0.55182 z m -18.7721,1.70826 c 0.2895,0.0112 0.6363,0.0626 0.8861,0.13595 0.7866,0.2309 1.8462,0.67713 2.0746,0.87386 0.4457,0.38405 0.6274,2.09347 0.3316,3.12007 -0.142,0.49288 -0.2646,0.62196 -0.7017,0.7395 -0.8267,0.22235 -2.0883,-0.18221 -3.0417,-0.97569 -0.5289,-0.44039 -0.5922,-0.52484 -0.837,-1.10898 -0.6732,-1.6064 -0.2762,-2.68544 1.0236,-2.78205 0.078,-0.006 0.168,-0.006 0.2645,-0.003 z m 15.4857,8.87504 c 0.6258,0.009 1.4376,0.0855 1.8869,0.20153 0.7055,0.18234 1.0329,0.41986 1.2236,0.88664 0.1851,0.45316 0.1415,0.60069 -0.4292,1.45395 -0.2376,0.35519 -0.4986,0.74462 -0.5801,0.86532 -0.2202,0.32655 -0.709,0.68168 -1.0551,0.76668 -0.3782,0.0929 -1.4106,-0.16477 -1.8431,-0.46012 -0.6626,-0.45228 -1.1599,-1.6681 -0.9565,-2.33791 0.1793,-0.59073 0.599,-1.17301 0.9463,-1.31265 0.1231,-0.0495 0.4318,-0.0688 0.8072,-0.0634 z m -9.2109,0.0181 c 0.3109,6.5e-4 0.3915,0.0488 0.5113,0.20047 0.4491,0.5686 1.2816,3.24546 1.3894,4.46737 0.077,0.87634 -0.03,1.7728 -0.4068,3.39999 -0.1547,0.6673 -0.3194,1.25731 -0.3657,1.31104 -0.1457,0.16908 -0.8412,0.14406 -1.6411,-0.0592 -0.8353,-0.21228 -3.2299,-1.14684 -3.4725,-1.35584 -0.3878,-0.33318 -0.3239,-3.00246 0.1098,-4.59 0.248,-0.90742 0.7597,-1.85926 1.302,-2.42163 0.6104,-0.63303 1.2052,-0.88978 2.1759,-0.9389 0.1648,-0.008 0.2941,-0.0135 0.3977,-0.0133 z m -3.1798,10.30711 c 0.8303,0.0233 2.7142,0.64718 3.7785,1.31798 0.3137,0.19767 0.3472,0.25116 0.4015,0.63926 0.039,0.27858 -0.034,0.78376 -0.2138,1.47526 -0.3422,1.31817 -0.5284,1.63751 -0.9997,1.71359 -0.3909,0.0631 -1.3015,-0.12159 -1.8063,-0.36628 -0.4427,-0.21457 -1.044,-0.97992 -1.3681,-1.74185 -0.394,-0.9263 -0.4925,-2.58362 -0.1754,-2.95159 0.056,-0.0654 0.1917,-0.0917 0.3833,-0.0864 z m 17.8626,3.11047 c 0.056,7.3e-4 0.1049,0.009 0.1498,0.0251 1.0488,0.3753 1.6247,1.46693 1.769,3.3536 0.069,0.90701 0.044,1.18974 -0.1807,2.04254 -0.1435,0.54436 -0.4652,1.4749 -0.715,2.06814 -0.2497,0.59326 -0.5454,1.18437 -0.6568,1.31373 -0.1851,0.21482 -0.2456,0.226 -0.699,0.12582 -0.5795,-0.12804 -1.6879,-0.27507 -2.7,-0.35775 -0.3929,-0.0321 -0.8782,-0.12612 -1.0785,-0.20899 -0.3609,-0.14938 -0.364,-0.15384 -0.3556,-0.48518 0.017,-0.68178 0.8754,-3.71501 1.3803,-4.87792 0.4331,-0.99741 0.5629,-1.219 1.061,-1.80955 0.5472,-0.64893 0.5919,-0.6835 1.2497,-0.96237 0.3771,-0.15981 0.6079,-0.22931 0.7758,-0.22713 z m -14.2328,8.30828 c 0.462,0.0428 1.061,0.32859 1.2982,0.61954 0.6197,0.75954 0.9352,2.74732 0.7161,4.5079 -0.077,0.61544 -0.3213,1.66319 -0.6185,2.64823 -0.2704,0.8964 -0.5365,1.68341 -0.5923,1.74823 -0.055,0.0651 -0.1897,0.0851 -0.2981,0.0448 -0.8769,-0.32691 -1.2422,-0.45164 -1.7669,-0.60355 -0.8449,-0.24461 -2.2785,-0.82068 -2.6946,-1.08286 -0.3348,-0.21101 -0.3505,-0.23929 -0.37,-0.67392 -0.028,-0.61444 0.1593,-2.11418 0.3642,-2.92386 0.3759,-1.48599 1.0821,-2.75411 1.9002,-3.41118 0.5716,-0.4592 1.6414,-0.9123 2.0617,-0.87333 z m 9.0259,1.68001 c 0.4942,-0.0243 2.4496,0.1757 2.9825,0.30496 0.4956,0.12025 0.7881,0.43067 0.8051,0.85466 0.019,0.45805 -0.1916,0.96814 -0.7901,1.91833 -0.582,0.92334 -0.7501,1.11762 -1.076,1.2412 -0.7709,0.29238 -2.6012,-0.90476 -3.0641,-2.00415 -0.1375,-0.32655 -0.1447,-0.51231 -0.037,-0.93997 0.075,-0.29761 0.2607,-0.71439 0.4197,-0.94264 0.2807,-0.40303 0.2917,-0.40936 0.7597,-0.43239 z m -12.7932,7.96119 c 0.033,2e-5 0.072,0.003 0.1157,0.0107 0.143,0.0236 0.3638,0.0607 0.491,0.0821 0.4005,0.0675 1.4377,0.67834 2.114,1.24493 0.5736,0.48065 0.6726,0.59845 0.8323,0.99222 0.2317,0.57141 0.162,1.25412 -0.2181,2.14013 -0.5657,1.31867 -0.9837,1.5032 -2.2372,0.98741 -0.8087,-0.3327 -1.1372,-0.59542 -1.4816,-1.18576 -0.7452,-1.27705 -0.7555,-2.32517 -0.036,-3.58391 0.1439,-0.25168 0.2645,-0.51657 0.2682,-0.58862 0,-0.0666 0.053,-0.0993 0.1514,-0.0992 z m 14.4801,4.2749 c 0.5106,-0.0216 0.9521,0.14465 1.366,0.50384 0.676,0.58612 0.9208,1.07861 0.9506,1.9146 0.042,1.1752 -0.2295,2.75851 -0.588,3.43196 -0.4069,0.76422 -2.497,3.12913 -2.7842,3.15046 -0.1959,0.0146 -2.5939,-0.9935 -3.1467,-1.32277 -0.263,-0.15688 -0.5055,-0.33553 -0.5385,-0.39722 -0.108,-0.20087 0.3848,-1.85469 0.8578,-2.87907 0.6407,-1.38751 1.0999,-2.15822 1.8869,-3.16646 0.5858,-0.75064 0.7183,-0.88307 0.9938,-0.99435 0.3648,-0.14732 0.696,-0.22802 1.0023,-0.24099 z m -15.3407,5.6894 c 0.553,-0.0401 0.9833,0.16488 1.5339,0.64352 0.4984,0.43298 0.6727,0.88695 0.7017,1.82821 0.065,2.11367 -0.3191,3.39581 -1.6107,5.37322 -0.807,1.23556 -0.8521,1.29387 -1.1004,1.42141 -0.2587,0.13288 -0.4524,0.10443 -1.117,-0.16368 -0.9505,-0.38321 -1.6676,-0.86745 -2.2446,-1.51578 -0.6316,-0.70966 -0.7956,-0.99208 -0.844,-1.45394 -0.1113,-1.06166 1.1185,-3.85973 2.1902,-4.98348 0.3794,-0.39785 0.5519,-0.50585 1.3105,-0.8184 0.4725,-0.1947 0.8486,-0.30698 1.1804,-0.33108 z m 9.3277,2.81935 c 0.045,-0.009 0.093,-0.006 0.1552,0 0.3687,0.0361 1.1622,0.40045 2.0692,0.9501 0.8801,0.53342 1.3056,0.95514 1.3803,1.3681 0.041,0.22739 -0.01,0.31785 -0.4483,0.85093 -0.5645,0.68052 -1.3791,1.43446 -1.7024,1.57549 -0.277,0.12083 -0.8326,0.0571 -1.2722,-0.14608 -0.4446,-0.20522 -1.2777,-0.9281 -1.5536,-1.3473 -0.4354,-0.6615 -0.2593,-1.29736 0.7032,-2.54053 0.4162,-0.53748 0.5321,-0.68222 0.6686,-0.71071 z m -14.4066,5.74163 c 0.01,-0.008 0.3794,0.2991 0.828,0.683 0.4486,0.38396 1.2621,1.03773 1.8075,1.45285 0.8723,0.66396 1.0002,0.78585 1.0647,1.01035 0.095,0.32982 0,0.70117 -0.3274,1.31959 -0.5881,1.10165 -1.2849,1.84551 -1.8362,1.96043 -0.239,0.0497 -0.2906,0.0183 -0.997,-0.5998 -0.6089,-0.53309 -0.8048,-0.7546 -1.0711,-1.21455 -0.1793,-0.30953 -0.3389,-0.68867 -0.3551,-0.8424 -0.039,-0.37247 0.3883,-2.4298 0.6584,-3.16698 0.1185,-0.32314 0.2211,-0.59421 0.2282,-0.60249 z m 11.4444,5.8648 c 0.2747,-0.0124 0.6103,0.13973 0.957,0.44146 0.7705,0.67036 0.9888,1.33573 0.9677,2.94466 -0.019,1.43084 -0.1731,1.99131 -0.7902,2.86629 h -5e-4 c -0.5212,0.73979 -0.801,1.06603 -1.8479,2.15558 -0.5234,0.54466 -0.706,0.68826 -0.9421,0.74056 -0.5777,0.12792 -1.96,-0.64239 -3.0023,-1.67306 -0.3275,-0.32387 -0.6336,-0.64562 -0.6798,-0.71498 -0.1093,-0.16387 -0.019,-0.3815 0.86,-2.06547 0.9325,-1.78676 1.583,-2.58489 3.0609,-3.75666 0.525,-0.41624 1.0489,-0.80805 1.1645,-0.87067 0.076,-0.0413 0.1611,-0.0635 0.2527,-0.0677 z m -15.2474,4.98561 c 0.6995,-0.0259 1.5264,0.79267 1.6293,1.61282 0.078,0.62448 -0.01,1.89124 -0.1882,2.83163 -0.2037,1.05003 -0.557,1.82441 -1.6864,3.69909 -0.5193,0.86201 -1.0351,1.67265 -1.1457,1.80103 l -0.2011,0.233 -0.9186,-0.71445 c -1.5303,-1.19031 -2.983,-2.83248 -3.0033,-3.39465 -0.013,-0.34881 0.698,-2.69033 1.0082,-3.32215 0.3016,-0.6142 0.7614,-1.12713 1.3366,-1.49125 0.6431,-0.40709 2.7444,-1.23931 3.1692,-1.25507 z m 8.7886,3.49275 c 0.053,0.005 0.1129,0.0196 0.1861,0.0394 0.75,0.20456 2.145,1.19858 2.878,2.05054 0.3201,0.37199 0.2961,0.41298 -0.7571,1.2764 -0.903,0.74036 -1.7459,1.21006 -2.2366,1.24654 -0.3561,0.0264 -0.9341,-0.21941 -1.3409,-0.56995 -0.4078,-0.35142 -0.6813,-1.29359 -0.5433,-1.87248 0.079,-0.33235 0.9753,-1.61692 1.3734,-1.96844 0.1876,-0.16556 0.2817,-0.21928 0.4404,-0.20207 z m -14.8475,5.42388 c 0.1088,8e-4 0.2442,0.0519 0.4308,0.14502 0.5053,0.25224 2.0671,1.51481 2.524,2.04041 0.7447,0.85658 0.7467,0.97033 0.045,2.18491 -0.5391,0.93355 -0.8597,1.23097 -1.6037,1.48539 -0.8287,0.28333 -1.483,-0.13661 -1.96,-1.25827 -0.4624,-1.08723 -0.4035,-2.9701 0.1291,-4.13948 0.1459,-0.32029 0.2531,-0.45933 0.4345,-0.45798 z"
       inkscape:label="logoLinkedIn" /></g></svg>
