<?xml version="1.0" encoding="UTF-8" standalone="no"?>
<!-- Created with Inkscape (http://www.inkscape.org/) -->

<svg
   width="212.15291mm"
   height="212.49217mm"
   viewBox="0 0 215.11182 215.45582"
   version="1.1"
   id="svg5"
   xml:space="preserve"
   inkscape:version="1.2.2 (b0a8486541, 2022-12-01)"
   sodipodi:docname="favicon.svg"
   xmlns:inkscape="http://www.inkscape.org/namespaces/inkscape"
   xmlns:sodipodi="http://sodipodi.sourceforge.net/DTD/sodipodi-0.dtd"
   xmlns:xlink="http://www.w3.org/1999/xlink"
   xmlns="http://www.w3.org/2000/svg"
   xmlns:svg="http://www.w3.org/2000/svg"><sodipodi:namedview
     id="namedview7"
     pagecolor="#ffffff"
     bordercolor="#000000"
     borderopacity="0.25"
     inkscape:showpageshadow="2"
     inkscape:pageopacity="0.0"
     inkscape:pagecheckerboard="true"
     inkscape:deskcolor="#d1d1d1"
     inkscape:document-units="mm"
     showgrid="false"
     showguides="true"
     inkscape:zoom="0.35355339"
     inkscape:cx="733.97684"
     inkscape:cy="811.75859"
     inkscape:window-width="1920"
     inkscape:window-height="1007"
     inkscape:window-x="0"
     inkscape:window-y="0"
     inkscape:window-maximized="1"
     inkscape:current-layer="svg5"><sodipodi:guide
       position="430.22363,215.45582"
       orientation="0,-1"
       id="guide1498"
       inkscape:locked="false" /><sodipodi:guide
       position="415.05351,0.087700284"
       orientation="0,-1"
       id="guide1500"
       inkscape:locked="false" /><sodipodi:guide
       position="215.11181,215.45582"
       orientation="1,0"
       id="guide1694"
       inkscape:locked="false" /><sodipodi:guide
       position="430.22363,215.45582"
       orientation="1,0"
       id="guide1696"
       inkscape:locked="false" /><sodipodi:guide
       position="645.33544,206.35032"
       orientation="1,0"
       id="guide1698"
       inkscape:locked="false" /><sodipodi:guide
       position="853.85681,33.914827"
       orientation="1,0"
       id="guide1700"
       inkscape:locked="false" /><sodipodi:guide
       position="1069.3213,205.26143"
       orientation="1,0"
       id="guide1702"
       inkscape:locked="false" /><sodipodi:guide
       position="1284.4331,116.19463"
       orientation="1,0"
       id="guide1704"
       inkscape:locked="false" /><sodipodi:guide
       position="-4.3321729e-06,107.77176"
       orientation="1,0"
       id="guide1710"
       inkscape:locked="false" /></sodipodi:namedview><defs
     id="defs2"><linearGradient
       inkscape:collect="always"
       id="linearGradient1153"><stop
         style="stop-color:#000000;stop-opacity:1;"
         offset="0"
         id="stop1149" /><stop
         style="stop-color:#000000;stop-opacity:0;"
         offset="1"
         id="stop1151" /></linearGradient><rect
       x="953.69067"
       y="445.91483"
       width="224.24619"
       height="73.459953"
       id="rect1046" /><rect
       x="1001.3752"
       y="105.67924"
       width="369.87732"
       height="174.30748"
       id="rect990" /><rect
       x="961.42328"
       y="123.72203"
       width="289.97351"
       height="175.27287"
       id="rect984" /><rect
       x="895.69598"
       y="161.09641"
       width="456.22501"
       height="220.37987"
       id="rect978" /><rect
       x="1001.3752"
       y="105.67924"
       width="369.87732"
       height="174.30748"
       id="rect1355" /><rect
       x="953.69067"
       y="445.91483"
       width="224.24619"
       height="73.459953"
       id="rect1357" /><rect
       x="1001.3752"
       y="105.67924"
       width="369.87732"
       height="174.30748"
       id="rect1369" /><rect
       x="953.69067"
       y="445.91483"
       width="224.24619"
       height="73.459953"
       id="rect1371" /><rect
       x="1001.3752"
       y="105.67924"
       width="369.87732"
       height="174.30748"
       id="rect410" /><rect
       x="953.69067"
       y="445.91483"
       width="224.24619"
       height="73.459953"
       id="rect412" /><linearGradient
       inkscape:collect="always"
       xlink:href="#linearGradient1153"
       id="linearGradient1157"
       x1="566.68475"
       y1="-151.12093"
       x2="703.54126"
       y2="-151.12093"
       gradientUnits="userSpaceOnUse" /></defs><path
     id="path239-3"
     style="display:inline;fill:#808080;fill-opacity:1;stroke:none;stroke-width:0.0861216"
     d="m 142.78928,215.39001 c 1.04729,-0.10188 1.56368,-0.34632 2.641,-1.25021 1.21142,-1.01642 1.56637,-1.60598 1.57118,-2.60964 0.003,-0.60223 -0.17904,-1.01906 -0.49759,-1.14017 -0.12077,-0.0459 -0.74868,-0.18482 -1.39534,-0.30865 -1.82053,-0.34864 -2.83179,-0.32077 -4.76023,0.13121 -1.81752,0.42596 -2.0375,0.49805 -2.08935,0.6846 -0.022,0.0789 -0.0653,0.51303 -0.0963,0.96465 -0.0987,1.43717 0.21456,2.96048 0.68035,3.30847 0.19042,0.14224 0.41462,0.18615 1.15586,0.22639 1.4828,0.0805 1.90524,0.0795 2.79041,-0.007 z m -6.11863,-0.60304 c 0.16405,-1.09229 0.009,-2.76876 -0.3198,-3.45832 -0.12836,-0.26916 -0.19821,-0.31752 -0.52294,-0.36203 -0.5171,-0.0709 -2.04827,0.0857 -2.34654,0.23992 -0.5195,0.26864 -1.04583,1.07684 -1.04583,1.60591 0,0.52777 0.1881,1.11591 0.43627,1.36407 0.34195,0.34194 1.23217,0.668 2.36268,0.86537 1.31842,0.23018 1.36453,0.22199 1.43616,-0.25492 z m 21.17368,-5.32172 c 0.2595,-0.32055 0.30051,-0.90826 0.13307,-1.90567 -0.1726,-1.02784 -0.4104,-1.85229 -0.62012,-2.14991 -0.14103,-0.2001 -0.16806,-0.20412 -1.05755,-0.15747 -1.54301,0.0809 -2.12959,0.35798 -2.34276,1.10649 -0.1351,0.47434 -0.13842,1.5581 -0.006,2.02075 0.13078,0.45759 0.43967,0.91209 0.70732,1.0408 0.31243,0.15026 1.39639,0.27314 2.26513,0.25681 0.68052,-0.0128 0.77817,-0.0353 0.92108,-0.2118 z m 6.35909,-0.11287 c 0.73142,-0.16506 2.08418,-0.97886 2.93222,-1.76401 0.60325,-0.5585 0.813,-1.05622 0.81569,-1.93552 0.003,-0.86176 -0.40715,-1.45993 -1.32364,-1.9321 -0.2596,-0.13374 -0.44326,-0.14733 -1.37796,-0.10196 -1.25548,0.0609 -2.12402,0.21348 -3.56802,0.62661 -1.06609,0.30499 -2.61354,0.99917 -2.69383,1.20843 -0.0247,0.0642 -0.002,0.35932 0.0499,0.65573 0.10951,0.62283 0.89738,3.0547 1.03387,3.19119 0.20015,0.20016 3.30175,0.23891 4.13175,0.0516 z m -42.83448,-0.7247 c 1.35418,-0.257 1.43754,-0.33193 1.59752,-1.43587 0.0982,-0.67735 0.0362,-2.64963 -0.10019,-3.18768 -0.13427,-0.52967 -0.25674,-0.59864 -0.78801,-0.44367 -1.21227,0.35364 -2.65162,1.51787 -3.16445,2.55959 -0.52907,1.07468 -0.42214,1.83099 0.32036,2.26613 0.6667,0.39071 1.09392,0.43904 2.13477,0.2415 z m 5.63389,-1.20512 c 2.12024,-0.36177 2.92368,-0.59589 3.83611,-1.11784 0.81714,-0.46746 1.81424,-1.21737 2.22888,-1.67633 0.54457,-0.60278 0.62337,-1.74326 0.15531,-2.24745 -0.28426,-0.30616 -2.25155,-1.33678 -2.96718,-1.55441 -0.64009,-0.19467 -1.31705,-0.20786 -1.96783,-0.0384 -0.66939,0.17435 -2.86868,1.14752 -3.12027,1.38068 -0.40549,0.37579 -0.69598,2.51105 -0.60047,4.41395 l 0.0573,1.14221 h 0.30278 c 0.16654,0 1.10044,-0.1361 2.07535,-0.30245 z m 15.57694,-3.79496 c 0.67217,-0.15096 1.00816,-0.32073 1.19298,-0.60278 0.1258,-0.19201 0.13408,-0.36536 0.0688,-1.44074 -0.0408,-0.67235 -0.0757,-1.69724 -0.0776,-2.27752 -0.002,-0.58029 -0.0122,-1.05503 -0.0229,-1.05499 -0.0107,3e-5 -0.27854,0.0976 -0.5951,0.21671 -0.72212,0.27181 -2.52795,1.27297 -2.77998,1.54125 -0.10402,0.11073 -0.2836,0.47297 -0.39907,0.80497 -0.17157,0.49335 -0.21132,0.78144 -0.21761,1.57672 -0.007,0.92245 0.003,0.98108 0.19327,1.12712 0.43923,0.33671 1.43987,0.37816 2.63732,0.10926 z m 5.35364,-1.58887 c 2.30074,-0.30696 3.50171,-0.84327 5.03352,-2.24774 0.68215,-0.62545 0.90831,-1.0462 0.91097,-1.69499 0.005,-1.14716 -0.31375,-1.61607 -1.50866,-2.22115 -0.71934,-0.36427 -0.91024,-0.42364 -1.44983,-0.45088 -1.52414,-0.077 -4.39638,0.80259 -5.11542,1.56649 -0.3128,0.33233 -0.41782,0.63531 -0.54098,1.5608 -0.11252,0.84551 -0.0132,1.69018 0.31121,2.64362 0.22676,0.66675 0.32983,0.82904 0.59471,0.9364 0.25428,0.10307 0.3269,0.0993 1.76448,-0.0925 z m 27.17534,-2.62565 c 1.09138,-0.16395 1.6059,-0.33471 1.9351,-0.64225 0.30474,-0.28467 0.34831,-0.70173 0.11989,-1.14785 -0.24562,-0.47967 -1.35128,-2.06363 -1.68641,-2.41593 -0.31741,-0.33368 -0.32918,-0.33787 -0.8093,-0.28831 -0.27188,0.0281 -0.70078,0.15714 -0.97056,0.29211 -0.38767,0.19395 -0.52164,0.31884 -0.67654,0.63069 -0.52155,1.0499 -0.23871,3.18038 0.47353,3.56679 0.30107,0.16335 0.55355,0.1641 1.61429,0.005 z m 6.22594,-1.1708 c 0.60191,-0.19462 1.50132,-0.55214 1.99867,-0.79447 0.77917,-0.37968 1.00555,-0.54234 1.63631,-1.17587 1.31202,-1.31779 1.75526,-2.4465 1.36187,-3.46806 -0.0674,-0.17495 -0.26321,-0.32224 -0.74433,-0.55979 -0.62962,-0.31086 -0.68382,-0.32205 -1.51799,-0.31317 -0.7592,0.008 -1.0073,0.0535 -2.02769,0.37093 -1.18967,0.37014 -3.9988,1.67709 -4.51737,2.1017 -0.25203,0.20637 -0.25325,0.21167 -0.13297,0.57614 0.0668,0.20231 0.30808,0.62403 0.53624,0.93715 0.58765,0.80648 1.18944,1.72579 1.46584,2.23933 0.2163,0.40185 0.26324,0.43996 0.54193,0.43996 0.16781,0 0.79758,-0.15923 1.39949,-0.35385 z m -21.17978,-2.10205 c 0.90346,-0.2854 1.4563,-0.67162 1.73304,-1.21071 0.19071,-0.3715 0.2151,-0.52091 0.20496,-1.25631 -0.012,-0.86696 -0.22242,-2.03102 -0.42902,-2.37251 -0.0656,-0.10843 -0.17999,-0.29662 -0.25421,-0.41821 -0.0915,-0.14989 -0.16776,-0.19562 -0.23684,-0.14201 -0.056,0.0435 -0.33074,0.12349 -0.61044,0.1778 -1.39888,0.27162 -2.17277,0.95208 -2.64549,2.32612 -0.21854,0.63515 -0.2036,1.04799 0.0675,1.86351 0.42011,1.26411 0.82589,1.4571 2.17055,1.03232 z m 5.88976,-2.70342 c 0.92401,-0.41065 1.86101,-0.90059 2.36835,-1.23836 1.45136,-0.96626 2.72879,-2.47674 2.89679,-3.42528 0.0644,-0.36329 -0.10702,-0.99235 -0.37153,-1.36381 -0.24061,-0.33794 -1.26412,-0.84361 -1.97274,-0.97466 -1.01399,-0.18753 -2.41128,0.1 -3.7588,0.77335 -0.73423,0.36691 -1.97052,1.19006 -2.41026,1.60479 -0.31106,0.29336 -0.32212,0.32298 -0.26446,0.70759 0.0717,0.47793 0.56244,1.91518 0.92235,2.70114 0.2235,0.48808 0.36484,0.83986 0.68403,1.70246 0.0395,0.10658 0.1405,0.19343 0.22455,0.19302 0.0841,0 0.84086,-0.30652 1.68172,-0.68024 z m 26.52956,-9.82684 c 1.00138,-0.12245 1.13928,-0.18473 1.35789,-0.61325 0.22521,-0.4414 0.19169,-0.83733 -0.12516,-1.47956 -0.32288,-0.6544 -1.31627,-1.93474 -1.62496,-2.09438 -0.32676,-0.16898 -1.02962,-0.10803 -1.58446,0.13741 -0.62914,0.27829 -1.21511,1.42865 -1.12681,2.21207 0.0576,0.51151 0.52802,1.44541 0.83979,1.66743 0.28531,0.20315 0.86308,0.33913 1.24745,0.29358 0.1421,-0.0168 0.59942,-0.0723 1.01626,-0.1233 z m 5.18449,-2.08489 c 2.60175,-1.42037 3.19695,-2.01648 4.55762,-4.56449 0.26427,-0.49487 0.48049,-0.99992 0.48049,-1.12232 0,-0.27953 -0.29095,-0.46729 -1.36956,-0.88385 -0.92684,-0.35795 -1.13635,-0.35227 -2.33368,0.0633 -0.95555,0.33165 -1.74644,0.75866 -3.27261,1.76694 -1.56515,1.03402 -1.98079,1.36602 -1.98079,1.58213 0,0.26976 0.29697,0.79048 1.36094,2.38626 0.93175,1.39749 1.00816,1.4878 1.2161,1.43722 0.12206,-0.0297 0.72571,-0.32901 1.34149,-0.66517 z m -20.65863,1.01168 c 0.63001,-0.30995 1.05281,-0.57938 1.2352,-0.78711 0.25411,-0.2894 0.27239,-0.34877 0.21834,-0.70909 -0.22567,-1.50489 -1.30028,-3.88869 -1.75303,-3.88869 -0.47736,0 -1.64781,1.13628 -2.08469,2.02386 -0.35935,0.73007 -0.54372,1.66886 -0.41951,2.13605 0.14167,0.53281 0.58851,1.32937 0.88632,1.57996 0.35896,0.30204 0.71645,0.23585 1.91737,-0.35498 z m 4.67593,-3.11183 c 1.45339,-0.76306 2.18974,-1.25827 2.79256,-1.87804 0.84054,-0.86417 2.29933,-3.2013 2.43455,-3.90042 0.0481,-0.24865 0.004,-0.32722 -0.4435,-0.79678 -0.65923,-0.69112 -1.23188,-0.96933 -2.09476,-1.0177 -0.76659,-0.043 -1.804,0.18673 -2.63863,0.58425 -1.46021,0.69546 -3.48839,2.36025 -3.48763,2.86274 0,0.31466 0.84057,2.69695 1.21837,3.45499 0.36182,0.72589 0.78933,1.25991 1.00867,1.25991 0.0697,0 0.61432,-0.25603 1.21037,-0.56895 z m 6.68157,-11.56399 c 0.95407,-0.43834 2.10997,-1.66996 2.10997,-2.24817 0,-0.29618 -0.34739,-1.37163 -0.68006,-2.10533 -0.14088,-0.31071 -0.4217,-0.72458 -0.63921,-0.94211 -0.90578,-0.90577 -1.96364,-0.50927 -2.72777,1.02241 -0.27786,0.55699 -0.29981,0.65853 -0.28833,1.33488 0.0208,1.21877 0.52843,2.41751 1.22433,2.89038 0.36789,0.25 0.54303,0.25837 1.00107,0.0479 z m 4.89081,-4.25168 c 1.55045,-1.41729 2.34188,-2.24474 2.90356,-3.03578 0.67857,-0.95562 1.41587,-2.38209 1.55685,-3.01205 l 0.10561,-0.47188 -0.57652,-0.86321 c -0.67525,-1.011 -0.62804,-0.99571 -1.99955,-0.64779 -2.3452,0.59491 -3.81807,1.44385 -5.34351,3.07991 -0.65588,0.70344 -0.72876,0.98791 -0.45961,1.79421 0.31495,0.94347 0.77666,1.6487 2.01024,3.07047 0.42124,0.48551 0.80314,0.88275 0.84867,0.88275 0.0455,0 0.47495,-0.35848 0.95426,-0.79663 z m 11.52992,2.2064 c 0.69485,-0.35139 1.3494,-0.70856 1.45454,-0.79371 0.19118,-0.1548 0.19118,-0.15486 0.0362,-0.62227 -0.12138,-0.36599 -0.2782,-0.58559 -0.72249,-1.01168 -1.12223,-1.07621 -1.95345,-1.56576 -2.65855,-1.56576 -0.84926,0 -1.50051,1.00352 -1.50906,2.32528 -0.003,0.44149 0.0546,0.69789 0.27181,1.21324 0.4174,0.99033 0.90018,1.35328 1.56281,1.17493 0.16578,-0.0446 0.86993,-0.36863 1.56478,-0.72003 z m 4.37761,-2.1638 c 0.55861,-0.31626 2.22766,-1.58374 2.59704,-1.9722 1.02674,-1.07976 1.82534,-2.65345 1.82878,-3.6037 0.004,-1.18596 -0.35827,-1.83378 -1.1291,-2.01735 -1.01987,-0.24289 -3.11516,0.75544 -5.82782,2.77678 -0.57362,0.42742 -1.16889,0.86937 -1.32283,0.9821 -0.35323,0.25867 -0.35628,0.47266 -0.0144,1.01184 0.38743,0.61091 1.6546,1.96192 2.43707,2.5983 0.74663,0.60724 0.75295,0.60823 1.4312,0.22423 z m -104.89599,51.66485 0.47367,-0.0561 0.0268,-0.32365 c 0.0173,-0.20969 -0.0129,-0.33734 -0.0861,-0.36251 -0.0621,-0.0214 -1.13988,-0.0801 -2.3951,-0.13044 -3.780624,-0.15171 -6.102784,-0.41242 -9.214994,-1.03457 -0.92367,-0.18464 -2.60949,-0.51413 -3.7463,-0.73219 -1.88608,-0.36179 -5.43533,-1.22079 -7.70788,-1.86547 -0.91114,-0.25848 -4.59509,-1.39124 -4.99504,-1.53592 -0.11843,-0.0428 -1.00977,-0.35529 -1.9808,-0.69436 -6.17387,-2.15582 -12.68856,-5.15606 -18.62202,-8.57608 -6.16672,-3.55447 -12.65797,-8.26236 -17.63402,-12.78939 -3.61695,-3.29058 -6.79683,-6.52693 -9.46547,-9.63358 -5.83635,-6.79426 -9.65794,-12.40046 -13.5906,-19.93713 -4.38991,-8.41296 -7.6901003,-17.57413 -9.8346403,-27.30052 -0.7405,-3.35849 -1.45485,-8.20467 -1.72651,-11.71252 -0.23614,-3.04913 -0.27408,-3.94797 -0.32169,-7.62175 -0.0963,-7.43516 0.28424,-12.593974 1.43575,-19.463464 1.24901,-7.45109 3.37169,-15.11371 6.0716503,-21.91792 3.38925,-8.54129 8.55958,-17.72383 14.15951,-25.14748 1.81811,-2.41022 4.92154,-6.14404 6.50507,-7.82646 2.23762,-2.37735 7.33273,-7.1662 9.41435,-8.84847 3.9678,-3.20659 5.74246,-4.51711 9.53766,-7.04321 4.80026,-3.19506 9.30217,-5.67649 15.25542,-8.40868 9.85436,-4.52256 21.4243,-7.50792 32.84344,-8.47449 5.907734,-0.50006 12.873424,-0.48496 18.257764,0.0396 3.63601,0.35423 8.27398,1.01516 10.62169,1.51365 0.671,0.14247 1.39441,0.2937 1.60758,0.33606 5.39163,1.07152 12.23264,3.14921 17.87019,5.4274 10.08079,4.0737 18.42421,8.86626 26.22402,15.06335 4.99602,3.96944 10.09389,8.82119 14.21502,13.52875 7.06136,8.06617 13.97842,18.98143 17.52551,27.65563 1.48452,3.63028 2.37406,6.13781 3.77162,10.63176 0.38979,1.25336 1.50234,5.46786 1.89636,7.18365 1.26351,5.50195 2.02515,10.5772 2.52666,16.836764 0.1213,1.51388 0.15199,2.89858 0.15262,6.88972 0,5.27253 -0.0629,6.59383 -0.56266,11.66945 -0.29766,3.02284 -1.05766,8.06013 -1.59171,10.54989 -0.12191,0.5684 -0.31729,1.49851 -0.43415,2.06691 -0.88192,4.28963 -2.87197,10.4757 -5.36194,16.66763 -0.65,1.61638 -0.94317,2.54215 -0.83773,2.6453 0.14601,0.14286 0.68049,-0.68151 1.53842,-2.37284 1.36441,-2.68987 1.98209,-4.23925 3.56047,-8.93078 1.45515,-4.32531 2.21335,-7.10835 3.22561,-11.8401 1.01199,-4.73052 1.85117,-11.10692 2.05738,-15.63267 0.24505,-5.37868 -0.0493,-14.639754 -0.61036,-19.205084 -1.31031,-10.66129 -3.72516,-19.7827 -7.9529,-30.03979 -2.1508,-5.21818 -5.11293,-10.75523 -8.55212,-15.98641 -2.63193,-4.00326 -6.421,-8.97575 -9.35598,-12.27806 -3.96089,-4.4566 -10.43833,-10.45076 -14.99483,-13.87606 -6.46015,-4.85636 -14.85645,-9.86125 -21.65955,-12.91089 -11.15312,-4.99964 -22.58992,-7.98951 -34.75003,-9.08458 -4.52156,-0.40718 -12.78557,-0.5569 -16.87982,-0.30581 -6.151054,0.37723 -14.401324,1.72294 -19.894064,3.24495 -3.08279,0.85422 -3.93635,1.10981 -6.15768,1.84383 -3.63308,1.20049 -7.73495,2.78414 -10.59296,4.08969 -1.37097,0.62628 -5.18497,2.53208 -5.83851,2.91744 -0.25077,0.14786 -0.47119,0.26883 -0.48986,0.26883 -0.13998,0 -5.06101,2.91322 -7.06353,4.18158 -4.05585,2.5689 -9.19261,6.34452 -12.53067,9.21026 -2.51504,2.15917 -5.80898,5.24614 -7.36497,6.90221 -7.08868,7.54457 -13.65386,16.8639 -18.16554,25.78619 -5.3077403,10.49656 -8.6797003,20.76527 -10.5890903,32.24727 -0.95599003,5.74866 -1.31515003,9.318684 -1.52485003,15.157394 -0.11293,3.14378 -0.0636,5.6029 0.18417,9.18796 0.354,5.12161 0.94761003,9.49975 2.02378003,14.92605 0.90136,4.5448 2.73048,10.65478 4.94286,16.51094 1.64668,4.35877 2.43638,6.14539 4.7499903,10.74652 2.89438,5.75612 5.18429,9.45867 9.24119,14.94208 2.73939,3.70263 4.71108,6.07794 7.49863,9.03379 1.14521,1.21434 5.91457,5.77849 7.57688,7.25088 0.42302,0.3747 1.17875,1.04949 1.67938,1.49954 4.36674,3.92564 11.07024,8.53877 17.96227,12.36103 3.02023,1.67501 7.93091,4.03918 10.33457,4.97544 2.21716,0.8636 3.87352,1.48117 5.42566,2.02293 8.49395,2.96471 16.46587,4.80625 24.32932,5.62013 2.42903,0.25142 7.197824,0.40381 8.353804,0.26696 z m 10.4207,-0.25804 c 0.46198,-0.055 0.47436,-0.0636 0.50146,-0.34699 0.0274,-0.28616 0.0234,-0.28977 -0.25839,-0.23745 -0.15736,0.0292 -2.36919,0.0786 -4.91516,0.10967 l -4.62903,0.0566 -0.009,0.22397 -0.009,0.22398 -0.0584,-0.20893 c -0.0856,-0.30645 -0.24246,-0.31172 -0.28682,-0.01 -0.0212,0.14443 -0.0263,0.27478 -0.0115,0.28967 0.051,0.051 9.20062,-0.0444 9.67497,-0.10084 z m 5.78946,-34.92434 c 4.10507,-0.51958 6.90689,-0.97907 7.57941,-1.24299 0.46488,-0.18244 1.13689,-0.70819 1.13689,-0.88943 0,-0.23004 -0.9031,-0.46731 -3.96774,-1.04246 -9.12324,-1.71222 -15.24662,-2.16117 -21.19589,-1.55402 -1.70912,0.17444 -4.396244,0.42315 -5.971354,0.55271 -4.02219,0.33086 -8.28566,1.21628 -9.41277,1.95476 -1.40808,0.92262 1.81165,1.66981 10.15435,2.35644 4.940984,0.40666 5.781514,0.43196 12.430244,0.37421 5.17945,-0.0451 5.88721,-0.084 9.24686,-0.50922 z m -75.066484,-3.28788 c 1.2196,-0.62353 3.43977,-2.62047 8.1451,-7.32619 23.22569,-23.22754 36.35401,-36.51151 36.48444,-36.91693 0.12761,-0.39664 0.007,-0.78419 -0.93752,-3.03176 -0.59608,-1.41734 -1.73508,-3.97539 -2.53106,-5.68455 -0.79597,-1.70915 -1.69937,-3.75559 -2.00751,-4.54765 -0.87714,-2.25456 -0.8218,-2.15145 -1.07782,-2.00819 -0.12673,0.0709 -1.43175,1.3874 -2.90012,2.92552 -1.46836,1.5381 -11.1752,11.32341 -21.57075,21.74511 -10.39552,10.42168 -19.25762,19.38228 -19.69351,19.91246 -1.09857,1.33612 -2.53643,3.50379 -3.06431,4.61959 -0.53854,1.13839 -0.599,2.43929 -0.16088,3.4613 0.45527,1.06189 2.03887,3.03225 3.68556,4.58569 1.59809,1.50751 2.21823,1.89732 3.61227,2.27047 1.09646,0.29351 1.43402,0.2927 2.01611,-0.005 z m -2.31935,-1.84274 c -1.86442,-1.30666 -4.0885,-3.89812 -4.79334,-5.5851 -0.34293,-0.82067 -0.21166,-1.94862 0.36245,-3.11479 0.50809,-1.0321 2.63191,-3.7824 4.2511,-5.50509 3.11523,-3.31436 16.44474,-16.77921 25.74037,-26.00167 7.73863,-7.67769 11.82948,-11.9557 13.06109,-13.65857 0.46725,-0.64607 0.89971,-1.14369 0.96098,-1.10581 0.0612,0.0378 0.19323,0.32371 0.29323,0.63519 0.1,0.3115 0.79387,1.82832 1.54197,3.37074 1.42178,2.93124 2.92341,6.68337 3.08888,7.7182 0.0824,0.51556 0.0313,0.6942 -0.34543,1.20646 -0.2432,0.33071 -3.1671,3.38645 -6.49751,6.79056 -3.33043,3.40409 -6.70386,6.86241 -7.49653,7.68517 -2.18455,2.26741 -7.31527,7.14004 -10.53893,10.00872 -4.30153,3.82794 -7.23127,6.65405 -11.78989,11.37286 -3.86927,4.00519 -6.23639,6.30944 -6.7932,6.61266 -0.17514,0.0954 -0.4678,-0.0248 -1.04524,-0.42953 z m 127.159684,-1.13022 c 1.10901,-0.40838 3.09026,-1.94111 4.15734,-3.21621 1.72901,-2.06605 2.55824,-4.54676 2.23133,-6.6752 -0.315,-2.05093 -0.86937,-2.78151 -6.56107,-8.647 -2.26877,-2.33801 -5.66545,-5.88518 -7.54818,-7.88258 -5.13854,-5.45147 -27.37717,-27.39546 -28.59985,-28.22091 -0.5903,-0.39855 -0.28446,-0.68403 -8.04558,7.50951 -5.22665,5.51784 -5.79179,6.23727 -5.06676,6.45032 0.93108,0.27362 2.71956,0.54181 3.47443,0.52099 0.77379,-0.0213 1.04464,0.0572 2.09877,0.60803 1.3166,0.68805 4.52146,3.26386 6.42783,5.16618 1.45146,1.44837 7.13441,7.52441 8.73264,9.33664 0.66177,0.75038 2.3682,2.66039 3.79208,4.24448 1.42389,1.58408 3.39427,3.83518 4.37863,5.00241 4.68075,5.55028 12.19154,13.4883 14.16106,14.96652 1.04336,0.78312 1.55801,0.96748 3.2344,1.15863 1.32695,0.15138 2.04962,0.0771 3.13293,-0.32181 z m -3.46367,-1.7124 c -1.97262,-0.54934 -2.29876,-0.82826 -7.4366,-6.35995 -1.62614,-1.75084 -3.94363,-4.30502 -5.14998,-5.67596 -1.20628,-1.37094 -2.8659,-3.21272 -3.688,-4.09288 -0.82211,-0.88015 -2.66387,-2.92986 -4.09288,-4.5549 -5.3385,-6.07099 -14.55718,-15.72117 -16.21129,-16.97001 -0.45995,-0.34726 -1.63733,-1.00002 -2.61649,-1.45059 -1.68399,-0.77491 -2.94627,-1.58707 -2.94627,-1.89563 0,-0.21291 1.15954,-1.49172 3.84709,-4.24277 1.3441,-1.37585 3.01412,-3.10381 3.71119,-3.83989 l 1.26735,-1.33833 0.40014,0.36145 c 4.66919,4.21798 38.97745,38.45696 40.06717,39.98617 0.98401,1.38096 1.27568,2.33782 1.05207,3.45123 -0.48234,2.40178 -2.76983,5.40986 -4.83952,6.36399 -1.01048,0.46583 -2.27083,0.56253 -3.36398,0.25807 z m -57.00793,-7.95162 c 0.16159,-5.22626 0.21055,-5.73523 0.78696,-8.18577 0.3349,-1.42389 0.33934,-1.59389 0.39638,-15.12578 0.0616,-14.5987 -0.0553,-19.38425 -0.54832,-22.46808 -0.20936,-1.30934 -0.35566,-3.37031 -0.4734,-6.66965 -0.10843,-3.0392 -0.23604,-4.91175 -0.35098,-5.15157 -0.13113,-0.2736 -0.34638,-0.40405 -0.78605,-0.47641 -1.06143,-0.17461 -1.08662,-0.12268 -1.19894,2.4777 -0.27253,6.3065 -0.3891,16.10446 -0.39039,32.81513 0,25.16548 0.10227,26.92478 1.7469,29.4543 l 0.44349,0.68215 0.1086,-1.13691 c 0.0597,-0.62529 0.17931,-3.42211 0.26568,-6.21511 z m 4.78582,-60.69235 c 5.04862,-1.33014 7.0453,-2.04796 9.79235,-3.520514 2.13773,-1.14591 3.76921,-2.31844 5.34464,-3.84118 1.96159,-1.89598 5.24891,-6.09487 6.12205,-7.81966 0.96803,-1.91228 2.01761,-9.80819 1.79287,-13.48752 -0.38591,-6.31799 -2.39702,-14.60883 -4.9575,-20.43732 -1.48007,-3.36905 -4.14132,-8.19524 -5.5378,-10.04289 -1.40263,-1.85576 -2.81444,-3.26345 -3.04338,-3.03449 -0.12621,0.12621 0.29766,1.19927 1.44254,3.65184 1.55486,3.33078 2.41924,5.54055 3.90743,9.98925 1.82381,5.45195 3.48726,12.12221 4.09557,16.42316 0.74181,5.24462 0.42223,9.57317 -0.99895,13.53106 -1.35059,3.76118 -2.46932,5.59191 -5.58484,9.13916 -2.43669,2.77435 -4.33008,4.19699 -9.04004,6.792324 -2.66049,1.46597 -5.68342,2.86022 -6.21513,2.8665 -0.16669,0.002 -0.40551,0.0764 -0.53055,0.16528 -0.38583,0.2743 1.90035,0.0229 3.41074,-0.37497 z m -7.88262,0.1093 c -1.05297,-0.22268 -1.05034,-0.2215 -0.82578,-0.36358 0.18321,-0.11599 0.17716,-0.13923 -0.037,-0.14116 -0.14099,-0.002 -0.29374,-0.0628 -0.33947,-0.13677 -0.0458,-0.0739 0,-0.13148 0.10473,-0.12779 0.71933,0.0259 0.72947,-0.0785 0.0361,-0.37345 -7.835644,-3.334974 -10.586014,-4.931024 -13.577974,-7.879404 -1.3434,-1.32384 -3.44945,-4.01577 -4.59365,-5.8716 -1.92981,-3.13014 -2.63852,-6.54958 -2.46921,-11.9139 0.24716,-7.83039 1.3364,-13.44013 4.07651,-20.99496 0.58962,-1.62578 1.51223,-3.97918 2.05022,-5.22978 0.53793,-1.25061 1.50674,-3.5358 2.15291,-5.0782 1.80294,-4.3038 1.86472,-4.60493 0.77333,-3.76771 -0.77127,0.59168 -3.58373,4.64855 -5.50191,7.93638 -3.39564,5.82021 -6.11242,13.52071 -7.1932,20.3886 -0.22412,1.42446 -0.27409,2.65809 -0.27328,6.74567 0,5.42806 0.10772,6.47492 0.91044,8.94605 0.58049,1.78699 2.50467,5.55836 3.64716,7.1484 1.21992,1.69782 3.3779,3.91319 4.99792,5.13083 1.45814,1.09601 4.64529,2.751954 6.51182,3.383404 1.48662,0.50291 6.948704,1.92852 8.178404,2.13455 0.77523,0.1299 1.93993,0.18457 1.37165,0.0644 z m 36.25898,-1.15132 c 1.92415,-1.66169 13.58231,-13.406684 14.24091,-14.346964 0.2475,-0.35335 2.77744,-2.50347 2.84649,-2.41914 0.0241,0.0294 0.32104,0.53101 0.65985,1.11463 0.78442,1.35126 1.46891,2.00583 2.38636,2.28195 0.95854,0.28847 1.51577,0.27682 3.33416,-0.0697 3.69658,-0.70437 5.84391,-2.1256 11.76504,-7.78675 4.05806,-3.8799 13.77739,-13.82765 15.14305,-15.49897 1.05456,-1.29053 2.05061,-2.86991 2.35621,-3.73606 0.19316,-0.54741 0.18547,-0.61465 -0.1028,-0.90294 -0.17126,-0.17127 -0.52718,-0.40282 -0.79086,-0.51443 -0.26365,-0.11159 -1.02508,-0.61829 -1.69206,-1.12596 -1.27183,-0.96806 -2.08112,-1.3218 -2.68003,-1.17148 -0.19684,0.0495 -0.69757,0.31014 -1.11274,0.57939 -0.96459,0.62553 -6.63073,6.20758 -9.20893,9.0722 -4.0252,4.47234 -7.01298,7.20925 -8.97077,8.21753 -0.60906,0.31366 -2.72722,0.87776 -3.29597,0.87776 -0.28067,0 -0.30285,-0.063 -0.21505,-0.61201 0.23332,-1.45909 0.55147,-2.03317 2.40428,-4.33844 1.90409,-2.36904 3.10243,-3.66954 8.00972,-8.69248 5.42761,-5.55552 6.26209,-6.51564 7.05156,-8.11295 0.49727,-1.00617 0.54724,-1.21267 0.46373,-1.91742 -0.12814,-1.08177 -0.73078,-2.2441 -1.71427,-3.30642 -0.79817,-0.86209 -1.83199,-1.51884 -2.39089,-1.51884 -0.59149,0 -1.36712,0.55341 -2.41916,1.726 -1.08563,1.21008 -4.02051,4.10834 -7.59862,7.50384 -1.00047,0.94942 -3.42208,3.30406 -5.38137,5.23254 -3.15404,3.10444 -3.71295,3.5885 -4.87661,4.22359 -0.72288,0.3945 -1.3912,0.7173 -1.48521,0.7173 -0.34102,0 -0.91441,-0.7982 -0.91428,-1.27274 1.4e-4,-0.54002 0.67476,-2.0419 1.38762,-3.08934 1.40731,-2.06767 4.86704,-5.66133 11.26985,-11.70601 5.16863,-4.87953 5.49121,-5.27754 5.64246,-6.96232 0.12638,-1.40818 -0.14662,-2.06578 -1.3361,-3.21811 -1.24962,-1.21055 -2.05633,-1.57641 -3.18219,-1.44305 -1.58649,0.18789 -2.10789,0.57142 -5.35034,3.93571 -1.65739,1.71966 -4.34413,4.37456 -5.97054,5.89975 -3.69321,3.46346 -10.13613,10.13354 -11.36974,11.77069 -2.56152,3.39937 -3.06844,5.14065 -2.47777,8.51084 0.1681,0.95878 0.46919,2.28897 0.66916,2.95595 0.19999,0.667 0.52179,1.73377 0.71511,2.37063 0.30586,1.00752 0.32631,1.21871 0.15753,1.62615 -0.20381,0.49195 -5.31361,5.62454 -9.17953,9.22038 -2.39023,2.2233 -2.94935,2.95309 -2.95349,3.85498 -0.004,0.83162 0.66644,3.29651 1.25912,4.63068 2.93376,6.604394 3.62399,7.932684 4.12222,7.932684 0.11793,0 0.47113,-0.22169 0.78489,-0.49267 z m -0.3216,-2.920524 c -1.01772,-1.09821 -2.86768,-4.55385 -3.40699,-6.36425 -0.38474,-1.29156 -0.63935,-3.0343 -0.49776,-3.40749 0.10139,-0.26709 3.35092,-3.34703 7.46726,-7.07749 2.42702,-2.19945 5.59761,-5.39017 5.59761,-5.63313 0,-0.0952 -0.36886,-0.94165 -0.81969,-1.88081 -1.53532,-3.19813 -2.24923,-6.01213 -1.89915,-7.48547 0.52291,-2.20076 3.38667,-6.38995 6.68641,-9.78118 0.94435,-0.9705 3.08498,-3.01694 4.75699,-4.54763 1.672,-1.53069 4.59592,-4.21557 6.4976,-5.96641 3.8858,-3.57761 4.53775,-4.1037 5.94187,-4.79496 0.80985,-0.39867 1.06118,-0.4601 1.39472,-0.34089 0.3863,0.13817 0.40637,0.19517 0.39656,1.12855 -0.0141,1.29485 -0.66469,2.72567 -2.16859,4.76523 -1.28807,1.7468 -2.9248,3.39845 -7.90192,7.97393 -4.3619,4.00994 -5.59445,5.29081 -7.39231,7.6824 l -1.39961,1.8618 v 0.95079 c 0,0.78927 0.0739,1.06529 0.43506,1.62472 0.76087,1.17862 1.98031,2.16085 3.09298,2.49127 0.69835,0.2074 0.80658,0.20307 1.38135,-0.0551 0.85183,-0.38269 1.80726,-1.26228 3.62645,-3.33845 3.47759,-3.96886 9.80254,-10.129 15.32253,-14.92325 2.79945,-2.43138 2.71338,-2.3984 3.26834,-1.25197 0.6576,1.35842 0.32463,3.50815 -0.79219,5.11479 -1.27901,1.83994 -7.06468,8.01015 -10.21455,10.89343 -3.39221,3.10514 -5.69827,5.58412 -6.5572,7.04885 -1.08503,1.85028 -1.15099,2.06543 -0.8362,2.72875 0.38231,0.80568 2.58933,2.98825 3.42879,3.3908 0.68424,0.32813 0.7289,0.33121 1.2127,0.0834 1.49505,-0.76566 4.8739,-3.91662 9.94279,-9.27217 8.13441,-8.59442 10.2099,-10.40672 12.30078,-10.74108 0.51627,-0.0825 0.72098,-0.0322 1.22523,0.30154 0.33449,0.22134 0.60541,0.52305 0.60541,0.67417 0,0.65802 -3.1925,4.98971 -6.05166,8.21111 -5.10985,5.75717 -14.27278,13.96155 -17.74768,15.89101 -1.27023,0.70531 -3.38461,1.2779 -4.39604,1.1905 -1.57462,-0.13606 -4.74426,-1.62266 -5.023,-2.35587 -0.22925,-0.60293 -0.8914,-1.40872 -1.11464,-1.35639 -0.10861,0.0255 -0.56269,0.50318 -1.00911,1.06159 -0.98898,1.23717 -4.09008,4.52478 -9.76915,10.35682 -2.35603,2.41947 -4.43694,4.60234 -4.6242,4.85083 -0.18727,0.24846 -0.39218,0.5117 -0.4553,0.58494 -0.0632,0.0732 -0.29015,-0.056 -0.50449,-0.28723 z m 37.02836,-30.15096 c 1.30542,-1.44878 2.06474,-2.21067 2.20329,-2.21067 0.17496,0 0.004,0.20226 -1.28572,1.51515 -0.44976,0.45814 -0.80452,0.87312 -0.78832,0.92215 0.0158,0.0491 -0.0702,0.0892 -0.19216,0.0892 -0.17426,0 -0.16088,-0.0674 0.0628,-0.31581 z m -7.6312,-1.37052 c 0.58362,-0.56452 1.26577,-1.20577 1.51585,-1.42498 0.37295,-0.32685 0.35682,-0.28962 -0.0896,0.20684 -0.29942,0.33297 -0.69557,0.77591 -0.88033,0.98435 -0.18476,0.20842 -0.41732,0.37897 -0.51677,0.37897 -0.0994,0 -0.1808,0.0854 -0.1808,0.18948 0,0.1042 -0.044,0.17249 -0.0979,0.15155 -0.0537,-0.0208 -0.25841,0.0922 -0.45474,0.25112 -0.19632,0.15894 0.12058,-0.17285 0.70414,-0.73739 z m 6.35766,-6.29731 c 1.47567,-1.65283 2.98141,-3.18335 3.13185,-3.18335 0.1923,0 -0.0352,0.32646 -0.9846,1.41448 -0.4081,0.46758 -0.80332,0.8122 -0.87831,0.76589 -0.16017,-0.0991 -0.57777,0.2144 -0.57777,0.43374 0,0.0834 0.11934,0.0579 0.26529,-0.0565 0.24003,-0.18825 0.24561,-0.18297 0.0586,0.0556 -0.1137,0.14504 -0.25941,0.23099 -0.3239,0.19113 -0.11899,-0.0736 -0.41827,0.20888 -0.44186,0.41688 -0.007,0.0625 -0.0417,0.0966 -0.0766,0.0759 -0.0349,-0.0208 -0.25563,0.13271 -0.49037,0.34106 -0.23475,0.20844 -0.0919,0.004 0.31755,-0.45475 z m 1.62017,-1.4022 c 0.16492,-0.30927 0.15824,-0.32166 -0.0704,-0.13307 -0.1387,0.11441 -0.25223,0.26793 -0.25223,0.34108 0,0.23155 0.13465,0.14469 0.32265,-0.20805 z m 0.60622,-0.68214 c 0.18856,-0.24044 0.18318,-0.24579 -0.0572,-0.0572 -0.2525,0.19804 -0.33281,0.32252 -0.20802,0.32252 0.0313,0 0.15085,-0.11934 0.26524,-0.26527 z m 1.04177,-1.30786 c 0,-0.0315 0.11934,-0.15084 0.26529,-0.26527 0.24042,-0.18853 0.24579,-0.18318 0.0572,0.0572 -0.19806,0.2525 -0.32254,0.33282 -0.32254,0.20804 z m -7.35202,-2.36816 c 0.49506,-0.50024 0.93417,-0.90953 0.97585,-0.90953 0.0417,0 -0.32924,0.40929 -0.82425,0.90953 -0.49501,0.50024 -0.93417,0.90953 -0.97585,0.90953 -0.0417,0 0.32924,-0.40929 0.82425,-0.90953 z M 112.38017,100.8358 c 1.4067,-0.43448 5.70575,-2.089514 5.94633,-2.289204 0.30256,-0.25107 -0.15753,-0.90726 -1.54609,-2.20482 -1.62302,-1.5167 -2.17629,-1.81653 -4.00686,-2.17139 -3.24505,-0.62905 -7.36581,-0.18144 -9.8645,1.07155 -0.91707,0.45986 -2.50305,2.32243 -2.79231,3.2793 -0.0864,0.28579 0.025,0.3891 0.85436,0.79429 0.5245,0.25616 1.6017,0.60039 2.39372,0.764934 0.79206,0.16458 1.95169,0.44105 2.57705,0.61446 2.44393,0.67773 4.55092,0.72383 6.4383,0.14081 z M 68.835956,97.302506 c 2.22948,-1.8914 10.73765,-10.98326 11.54416,-12.33609 0.075,-0.12585 -3.26993,-3.56988 -9.93873,-10.233 -5.52851,-5.52383 -12.9509,-13.00555 -16.49429,-16.62604 -10.49677,-10.72526 -13.12007,-12.96965 -15.82189,-13.53634 -0.87281,-0.18307 -0.88935,-0.18011 -1.23366,0.22013 -0.82962,0.9645 -1.7637,4.22028 -1.77354,6.18186 -0.0141,2.65152 1.0926,7.30632 2.53045,10.65063 1.33116,3.09615 2.74594,5.64373 5.15528,9.28321 4.82459,7.28781 7.99796,11.1526 15.92859,19.39928 5.38024,5.59467 6.57142,6.89134 7.14064,7.77306 l 0.51388,0.79596 0.7392,-0.3746 c 0.40663,-0.20603 1.17605,-0.74516 1.70991,-1.19806 z m -2.15743,-0.96673 c 0,-0.0625 -0.59059,-0.76173 -1.30999,-1.55377 -0.71945,-0.79206 -1.99754,-2.22325 -2.84031,-3.18046 -0.84277,-0.9572 -3.00394,-3.32108 -4.80261,-5.2531 -4.94889,-5.31561 -6.60369,-7.27555 -10.9259,-12.94039 -3.37658,-4.42542 -6.47461,-9.68726 -7.94337,-13.49133 -1.53639,-3.97925 -2.21166,-10.19868 -1.32086,-12.16494 0.38896,-0.85859 0.66149,-0.90952 1.80839,-0.33799 0.97461,0.48566 2.19035,1.61784 10.8135,10.07008 3.87687,3.8 7.86745,7.69101 8.86791,8.64665 1.00051,0.95565 4.61707,4.46771 8.03686,7.80458 3.41976,3.33689 7.25685,7.05695 8.52681,8.26682 1.26998,1.20986 2.30908,2.31127 2.30908,2.44754 0,0.52039 -2.61128,3.54554 -6.55462,7.59343 -3.6377,3.73417 -4.65557,4.62723 -4.66489,4.09288 z" /><g
     inkscape:label="Calque 1"
     inkscape:groupmode="layer"
     id="layer1"
     transform="translate(-89.491444,212.79412)" /></svg>
