<?xml version="1.0" encoding="UTF-8" standalone="no"?>
<!-- Created with Inkscape (http://www.inkscape.org/) -->

<svg
   width="212.15291mm"
   height="212.49217mm"
   viewBox="0 0 215.11182 215.45582"
   version="1.1"
   id="svg5"
   xml:space="preserve"
   inkscape:version="1.3.2 (091e20e, 2023-11-25)"
   sodipodi:docname="logofacebook.svg"
   xmlns:inkscape="http://www.inkscape.org/namespaces/inkscape"
   xmlns:sodipodi="http://sodipodi.sourceforge.net/DTD/sodipodi-0.dtd"
   xmlns:xlink="http://www.w3.org/1999/xlink"
   xmlns="http://www.w3.org/2000/svg"
   xmlns:svg="http://www.w3.org/2000/svg"><sodipodi:namedview
     id="namedview7"
     pagecolor="#ffffff"
     bordercolor="#000000"
     borderopacity="0.25"
     inkscape:showpageshadow="2"
     inkscape:pageopacity="0.0"
     inkscape:pagecheckerboard="true"
     inkscape:deskcolor="#d1d1d1"
     inkscape:document-units="mm"
     showgrid="false"
     showguides="true"
     inkscape:zoom="0.1767767"
     inkscape:cx="627.9108"
     inkscape:cy="1216.2236"
     inkscape:window-width="1472"
     inkscape:window-height="953"
     inkscape:window-x="0"
     inkscape:window-y="25"
     inkscape:window-maximized="0"
     inkscape:current-layer="svg5"><sodipodi:guide
       position="-4.3321729e-06,215.45582"
       orientation="0,-1"
       id="guide1498"
       inkscape:locked="false" /><sodipodi:guide
       position="-15.170124,0.087700284"
       orientation="0,-1"
       id="guide1500"
       inkscape:locked="false" /><sodipodi:guide
       position="-215.11182,215.45582"
       orientation="1,0"
       id="guide1694"
       inkscape:locked="false" /><sodipodi:guide
       position="-4.3321729e-06,215.45582"
       orientation="1,0"
       id="guide1696"
       inkscape:locked="false" /><sodipodi:guide
       position="215.11181,206.35032"
       orientation="1,0"
       id="guide1698"
       inkscape:locked="false" /><sodipodi:guide
       position="423.63318,33.914827"
       orientation="1,0"
       id="guide1700"
       inkscape:locked="false" /><sodipodi:guide
       position="639.09763,205.26143"
       orientation="1,0"
       id="guide1702"
       inkscape:locked="false" /><sodipodi:guide
       position="854.20948,116.19463"
       orientation="1,0"
       id="guide1704"
       inkscape:locked="false" /><sodipodi:guide
       position="-430.22363,107.77176"
       orientation="1,0"
       id="guide1710"
       inkscape:locked="false" /></sodipodi:namedview><defs
     id="defs2"><linearGradient
       inkscape:collect="always"
       id="linearGradient1153"><stop
         style="stop-color:#000000;stop-opacity:1;"
         offset="0"
         id="stop1149" /><stop
         style="stop-color:#000000;stop-opacity:0;"
         offset="1"
         id="stop1151" /></linearGradient><rect
       x="953.69067"
       y="445.91483"
       width="224.24619"
       height="73.459953"
       id="rect1046" /><rect
       x="1001.3752"
       y="105.67924"
       width="369.87732"
       height="174.30748"
       id="rect990" /><rect
       x="961.42328"
       y="123.72203"
       width="289.97351"
       height="175.27287"
       id="rect984" /><rect
       x="895.69598"
       y="161.09641"
       width="456.22501"
       height="220.37987"
       id="rect978" /><rect
       x="1001.3752"
       y="105.67924"
       width="369.87732"
       height="174.30748"
       id="rect1355" /><rect
       x="953.69067"
       y="445.91483"
       width="224.24619"
       height="73.459953"
       id="rect1357" /><rect
       x="1001.3752"
       y="105.67924"
       width="369.87732"
       height="174.30748"
       id="rect1369" /><rect
       x="953.69067"
       y="445.91483"
       width="224.24619"
       height="73.459953"
       id="rect1371" /><rect
       x="1001.3752"
       y="105.67924"
       width="369.87732"
       height="174.30748"
       id="rect410" /><rect
       x="953.69067"
       y="445.91483"
       width="224.24619"
       height="73.459953"
       id="rect412" /><linearGradient
       inkscape:collect="always"
       xlink:href="#linearGradient1153"
       id="linearGradient1157"
       x1="566.68475"
       y1="-151.12093"
       x2="703.54126"
       y2="-151.12093"
       gradientUnits="userSpaceOnUse" /></defs><path
     id="path1609"
     style="display:inline;stroke-width:0.346607;fill:#ffffff;fill-opacity:1"
     inkscape:label="Facebokk-f"
     d="m 134.01941,38.703946 c -37.052064,0 -54.139904,17.50388 -54.139904,55.24915 v 14.592094 h -22.87608 v 33.89834 h 22.87608 v 67.8056 c 0.78069,0.23793 1.49682,0.46801 1.83076,0.56275 2.27255,0.64468 5.82156,1.50355 7.70762,1.86534 1.13681,0.21806 2.82273,0.54735 3.7464,0.73199 3.11221,0.62214 5.43449,0.88313 9.215094,1.03484 1.25522,0.0503 3.80239,0.49803 3.86449,0.51943 4.31972,0.16201 7.79125,-0.6818 13.96804,-0.7907 l -0.12592,-5.45574 c -0.28866,-0.0442 -0.54505,-0.15075 -0.85198,-0.33062 -0.7425,-0.43514 -0.84922,-1.1915 -0.32015,-2.26618 0.23413,-0.47558 0.66155,-0.97686 1.17213,-1.41473 v -62.26198 h 29.98113 l 6.23893,-33.89834 H 120.08599 V 96.552516 c 0,-17.91947 7.0357,-24.78229 25.19779,-24.78229 5.64968,0 10.19053,0.13875 12.82474,0.41604 v -30.74404 c -4.95646,-1.35177 -17.08767,-2.73828 -24.08908,-2.73828 z m 8.76987,176.686064 c 1.04729,-0.10188 1.56368,-0.34632 2.641,-1.25021 1.21142,-1.01642 1.56637,-1.60598 1.57118,-2.60964 0.003,-0.60223 -0.17904,-1.01906 -0.49759,-1.14017 -0.12077,-0.0459 -0.74868,-0.18482 -1.39534,-0.30865 -1.82053,-0.34864 -2.83179,-0.32077 -4.76023,0.13121 -1.81752,0.42596 -2.0375,0.49805 -2.08935,0.6846 -0.022,0.0789 -0.0653,0.51303 -0.0963,0.96465 -0.0987,1.43717 0.21456,2.96048 0.68035,3.30847 0.19042,0.14224 0.41462,0.18615 1.15586,0.22639 1.4828,0.0805 1.90524,0.0795 2.79041,-0.007 z m -6.11863,-0.60304 c 0.16405,-1.09229 0.009,-2.76876 -0.3198,-3.45832 -0.12836,-0.26916 -0.19821,-0.31752 -0.52294,-0.36203 -0.5171,-0.0709 -2.04827,0.0857 -2.34654,0.23992 -0.5195,0.26864 -1.04583,1.07684 -1.04583,1.60591 0,0.52777 0.1881,1.11591 0.43627,1.36407 0.34195,0.34194 1.23217,0.668 2.36268,0.86537 1.31842,0.23018 1.36453,0.22199 1.43616,-0.25492 z m 21.17368,-5.32172 c 0.2595,-0.32055 0.30051,-0.90826 0.13307,-1.90567 -0.1726,-1.02784 -0.4104,-1.85229 -0.62012,-2.14991 -0.14103,-0.2001 -0.16806,-0.20412 -1.05755,-0.15747 -1.54301,0.0809 -2.12959,0.35798 -2.34276,1.10649 -0.1351,0.47434 -0.13842,1.5581 -0.006,2.02075 0.13078,0.45759 0.43967,0.91209 0.70732,1.0408 0.31243,0.15026 1.39639,0.27314 2.26513,0.25681 0.68052,-0.0128 0.77817,-0.0353 0.92108,-0.2118 z m 6.35909,-0.11287 c 0.73142,-0.16506 2.08418,-0.97886 2.93222,-1.76401 0.60325,-0.5585 0.813,-1.05622 0.81569,-1.93552 0.003,-0.86176 -0.40715,-1.45993 -1.32364,-1.9321 -0.2596,-0.13374 -0.44326,-0.14733 -1.37796,-0.10196 -1.25548,0.0609 -2.12402,0.21348 -3.56802,0.62661 -1.06609,0.30499 -2.61354,0.99917 -2.69383,1.20843 -0.0247,0.0642 -0.002,0.35932 0.0499,0.65573 0.10951,0.62283 0.89738,3.0547 1.03387,3.19119 0.20015,0.20016 3.30175,0.23891 4.13175,0.0516 z m -42.83448,-0.7247 c 1.35418,-0.257 1.43754,-0.33193 1.59752,-1.43587 0.0982,-0.67735 0.0362,-2.64963 -0.10019,-3.18768 -0.13427,-0.52967 -0.25674,-0.59864 -0.78801,-0.44367 -1.21227,0.35364 -2.65162,1.51787 -3.16445,2.55959 -0.52907,1.07468 -0.42214,1.83099 0.32036,2.26613 0.6667,0.39071 1.09392,0.43904 2.13477,0.2415 z m 5.63389,-1.20512 c 2.12024,-0.36177 2.92368,-0.59589 3.83611,-1.11784 0.81714,-0.46746 1.81424,-1.21737 2.22888,-1.67633 0.54457,-0.60278 0.62337,-1.74326 0.15531,-2.24745 -0.28426,-0.30616 -2.25155,-1.33678 -2.96718,-1.55441 -0.64009,-0.19467 -1.31705,-0.20786 -1.96783,-0.0384 -0.66939,0.17435 -2.86868,1.14752 -3.12027,1.38068 -0.40549,0.37579 -0.69598,2.51105 -0.60047,4.41395 l 0.0573,1.14221 h 0.30278 c 0.16654,0 1.10044,-0.1361 2.07535,-0.30245 z m 15.57694,-3.79496 c 0.67217,-0.15096 1.00816,-0.32073 1.19298,-0.60278 0.1258,-0.19201 0.13408,-0.36536 0.0688,-1.44074 -0.0408,-0.67235 -0.0757,-1.69724 -0.0776,-2.27752 -0.002,-0.58029 -0.0122,-1.05503 -0.0229,-1.05499 -0.0107,3e-5 -0.27854,0.0976 -0.5951,0.21671 -0.72212,0.27181 -2.52795,1.27297 -2.77998,1.54125 -0.10402,0.11073 -0.2836,0.47297 -0.39907,0.80497 -0.17157,0.49335 -0.21132,0.78144 -0.21761,1.57672 -0.007,0.92245 0.003,0.98108 0.19327,1.12712 0.43923,0.33671 1.43987,0.37816 2.63732,0.10926 z m 5.35364,-1.58887 c 2.30074,-0.30696 3.50171,-0.84327 5.03352,-2.24774 0.68215,-0.62545 0.90831,-1.0462 0.91097,-1.69499 0.005,-1.14716 -0.31375,-1.61607 -1.50866,-2.22115 -0.71934,-0.36427 -0.91024,-0.42364 -1.44983,-0.45088 -1.52414,-0.077 -4.39638,0.80259 -5.11542,1.56649 -0.3128,0.33233 -0.41782,0.63531 -0.54098,1.5608 -0.11252,0.84551 -0.0132,1.69018 0.31121,2.64362 0.22676,0.66675 0.32983,0.82904 0.59471,0.9364 0.25428,0.10307 0.3269,0.0993 1.76448,-0.0925 z m 27.17534,-2.62565 c 1.09138,-0.16395 1.6059,-0.33471 1.9351,-0.64225 0.30474,-0.28467 0.34831,-0.70173 0.11989,-1.14785 -0.24562,-0.47967 -1.35128,-2.06363 -1.68641,-2.41593 -0.31741,-0.33368 -0.32918,-0.33787 -0.8093,-0.28831 -0.27188,0.0281 -0.70078,0.15714 -0.97056,0.29211 -0.38767,0.19395 -0.52164,0.31884 -0.67654,0.63069 -0.52155,1.0499 -0.23871,3.18038 0.47353,3.56679 0.30107,0.16335 0.55355,0.1641 1.61429,0.005 z m 6.22594,-1.1708 c 0.60191,-0.19462 1.50132,-0.55214 1.99867,-0.79447 0.77917,-0.37968 1.00555,-0.54234 1.63631,-1.17587 1.31202,-1.31779 1.75526,-2.4465 1.36187,-3.46806 -0.0674,-0.17495 -0.26321,-0.32224 -0.74433,-0.55979 -0.62962,-0.31086 -0.68382,-0.32205 -1.51799,-0.31317 -0.7592,0.008 -1.0073,0.0535 -2.02769,0.37093 -1.18967,0.37014 -3.9988,1.67709 -4.51737,2.1017 -0.25203,0.20637 -0.25325,0.21167 -0.13297,0.57614 0.0668,0.20231 0.30808,0.62403 0.53624,0.93715 0.58765,0.80648 1.18944,1.72579 1.46584,2.23933 0.2163,0.40185 0.26324,0.43996 0.54193,0.43996 0.16781,0 0.79758,-0.15923 1.39949,-0.35385 z m -21.17978,-2.10205 c 0.90346,-0.2854 1.4563,-0.67162 1.73304,-1.21071 0.19071,-0.3715 0.2151,-0.52091 0.20496,-1.25631 -0.012,-0.86696 -0.22242,-2.03102 -0.42902,-2.37251 -0.0656,-0.10843 -0.17999,-0.29662 -0.25421,-0.41821 -0.0915,-0.14989 -0.16776,-0.19562 -0.23684,-0.14201 -0.056,0.0435 -0.33074,0.12349 -0.61044,0.1778 -1.39888,0.27162 -2.17277,0.95208 -2.64549,2.32612 -0.21854,0.63515 -0.2036,1.04799 0.0675,1.86351 0.42011,1.26411 0.82589,1.4571 2.17055,1.03232 z m 5.88976,-2.70342 c 0.92401,-0.41065 1.86101,-0.90059 2.36835,-1.23836 1.45136,-0.96626 2.72879,-2.47674 2.89679,-3.42528 0.0644,-0.36329 -0.10702,-0.99235 -0.37153,-1.36381 -0.24061,-0.33794 -1.26412,-0.84361 -1.97274,-0.97466 -1.01399,-0.18753 -2.41128,0.1 -3.7588,0.77335 -0.73423,0.36691 -1.97052,1.19006 -2.41026,1.60479 -0.31106,0.29336 -0.32212,0.32298 -0.26446,0.70759 0.0717,0.47793 0.56244,1.91518 0.92235,2.70114 0.2235,0.48808 0.36484,0.83986 0.68403,1.70246 0.0395,0.10658 0.1405,0.19343 0.22455,0.19302 0.0841,0 0.84086,-0.30652 1.68172,-0.68024 z m 26.52956,-9.82684 c 1.00138,-0.12245 1.13928,-0.18473 1.35789,-0.61325 0.22521,-0.4414 0.19169,-0.83733 -0.12516,-1.47956 -0.32288,-0.6544 -1.31627,-1.93474 -1.62496,-2.09438 -0.32676,-0.16898 -1.02962,-0.10803 -1.58446,0.13741 -0.62914,0.27829 -1.21511,1.42865 -1.12681,2.21207 0.0576,0.51151 0.52802,1.44541 0.83979,1.66743 0.28531,0.20315 0.86308,0.33913 1.24745,0.29358 0.1421,-0.0168 0.59942,-0.0723 1.01626,-0.1233 z m 5.18449,-2.08489 c 2.60175,-1.42037 3.19695,-2.01648 4.55762,-4.56449 0.26427,-0.49487 0.48049,-0.99992 0.48049,-1.12232 0,-0.27953 -0.29095,-0.46729 -1.36956,-0.88385 -0.92684,-0.35795 -1.13635,-0.35227 -2.33368,0.0633 -0.95555,0.33165 -1.74644,0.75866 -3.27261,1.76694 -1.56515,1.03402 -1.98079,1.36602 -1.98079,1.58213 0,0.26976 0.29697,0.79048 1.36094,2.38626 0.93175,1.39749 1.00816,1.4878 1.2161,1.43722 0.12206,-0.0297 0.72571,-0.32901 1.34149,-0.66517 z m -20.65863,1.01168 c 0.63001,-0.30995 1.05281,-0.57938 1.2352,-0.78711 0.25411,-0.2894 0.27239,-0.34877 0.21834,-0.70909 -0.22567,-1.50489 -1.30028,-3.88869 -1.75303,-3.88869 -0.47736,0 -1.64781,1.13628 -2.08469,2.02386 -0.35935,0.73007 -0.54372,1.66886 -0.41951,2.13605 0.14167,0.53281 0.58851,1.32937 0.88632,1.57996 0.35896,0.30204 0.71645,0.23585 1.91737,-0.35498 z m 4.67593,-3.11183 c 1.45339,-0.76306 2.18974,-1.25827 2.79256,-1.87804 0.84054,-0.86417 2.29933,-3.2013 2.43455,-3.90042 0.0481,-0.24865 0.004,-0.32722 -0.4435,-0.79678 -0.65923,-0.69112 -1.23188,-0.96933 -2.09476,-1.0177 -0.76659,-0.043 -1.804,0.18673 -2.63863,0.58425 -1.46021,0.69546 -3.48839,2.36025 -3.48763,2.86274 0,0.31466 0.84057,2.69695 1.21837,3.45499 0.36182,0.72589 0.78933,1.25991 1.00867,1.25991 0.0697,0 0.61432,-0.25603 1.21037,-0.56895 z m 6.68157,-11.56399 c 0.95407,-0.43834 2.10997,-1.66996 2.10997,-2.24817 0,-0.29618 -0.34739,-1.37163 -0.68006,-2.10533 -0.14088,-0.31071 -0.4217,-0.72458 -0.63921,-0.94211 -0.90578,-0.90577 -1.96364,-0.50927 -2.72777,1.02241 -0.27786,0.55699 -0.29981,0.65853 -0.28833,1.33488 0.0208,1.21877 0.52843,2.41751 1.22433,2.89038 0.36789,0.25 0.54303,0.25837 1.00107,0.0479 z m 4.89081,-4.25168 c 1.55045,-1.41729 2.34188,-2.24474 2.90356,-3.03578 0.67857,-0.95562 1.41587,-2.38209 1.55685,-3.01205 l 0.10561,-0.47188 -0.57652,-0.86321 c -0.67525,-1.011 -0.62804,-0.99571 -1.99955,-0.64779 -2.3452,0.59491 -3.81807,1.44385 -5.34351,3.07991 -0.65588,0.70344 -0.72876,0.98791 -0.45961,1.79421 0.31495,0.94347 0.77666,1.6487 2.01024,3.07047 0.42124,0.48551 0.80314,0.88275 0.84867,0.88275 0.0455,0 0.47495,-0.35848 0.95426,-0.79663 z m 11.52992,2.2064 c 0.69485,-0.35139 1.3494,-0.70856 1.45454,-0.79371 0.19118,-0.1548 0.19118,-0.15486 0.0362,-0.62227 -0.12138,-0.36599 -0.2782,-0.58559 -0.72249,-1.01168 -1.12223,-1.07621 -1.95345,-1.56576 -2.65855,-1.56576 -0.84926,0 -1.50051,1.00352 -1.50906,2.32528 -0.003,0.44149 0.0546,0.69789 0.27181,1.21324 0.4174,0.99033 0.90018,1.35328 1.56281,1.17493 0.16578,-0.0446 0.86993,-0.36863 1.56478,-0.72003 z m 4.37761,-2.1638 c 0.55861,-0.31626 2.22766,-1.58374 2.59704,-1.9722 1.02674,-1.07976 1.82534,-2.65345 1.82878,-3.6037 0.004,-1.18596 -0.35827,-1.83378 -1.1291,-2.01735 -1.01987,-0.24289 -3.11516,0.75544 -5.82782,2.77678 -0.57362,0.42742 -1.16889,0.86937 -1.32283,0.9821 -0.35323,0.25867 -0.35628,0.47266 -0.0144,1.01184 0.38743,0.61091 1.6546,1.96192 2.43707,2.5983 0.74663,0.60724 0.75295,0.60823 1.4312,0.22423 z m -104.89599,51.66485 0.47367,-0.0561 0.0268,-0.32365 c 0.0173,-0.20969 -0.0129,-0.33734 -0.0861,-0.36251 -0.0621,-0.0214 -1.13988,-0.0801 -2.3951,-0.13044 -3.780624,-0.15171 -6.102784,-0.41242 -9.214994,-1.03457 -0.92367,-0.18464 -2.60949,-0.51413 -3.7463,-0.73219 -1.88608,-0.36179 -5.43533,-1.22079 -7.70788,-1.86547 -0.91114,-0.25848 -4.59509,-1.39124 -4.99504,-1.53592 -0.11843,-0.0428 -1.00977,-0.35529 -1.9808,-0.69436 -6.17387,-2.15582 -12.68856,-5.15606 -18.62202,-8.57608 -6.16672,-3.55447 -12.65797,-8.26236 -17.63402,-12.78939 -3.61695,-3.29058 -6.79683,-6.52693 -9.46547,-9.63358 -5.83635,-6.79426 -9.65794,-12.40046 -13.5906,-19.93713 -4.38991,-8.41296 -7.6901003,-17.57413 -9.8346403,-27.30052 -0.7405,-3.35849 -1.45485,-8.20467 -1.72651,-11.71252 -0.23614,-3.04913 -0.27408,-3.94797 -0.32169,-7.62175 -0.0963,-7.43516 0.28424,-12.593974 1.43575,-19.463464 1.24901,-7.45109 3.37169,-15.11371 6.0716503,-21.91792 3.38925,-8.54129 8.55958,-17.72383 14.15951,-25.14748 1.81811,-2.41022 4.92154,-6.14404 6.50507,-7.82646 2.23762,-2.37735 7.33273,-7.1662 9.41435,-8.84847 3.9678,-3.20659 5.74246,-4.51711 9.53766,-7.04321 4.80026,-3.19506 9.30217,-5.67649 15.25542,-8.40868 9.85436,-4.52256 21.4243,-7.50792 32.84344,-8.47449 5.907734,-0.50006 12.873424,-0.48496 18.257764,0.0396 3.63601,0.35423 8.27398,1.01516 10.62169,1.51365 0.671,0.14247 1.39441,0.2937 1.60758,0.33606 5.39163,1.07152 12.23264,3.14921 17.87019,5.4274 10.08079,4.0737 18.42421,8.86626 26.22402,15.06335 4.99602,3.96944 10.09389,8.82119 14.21502,13.52875 7.06136,8.06617 13.97842,18.98143 17.52551,27.65563 1.48452,3.63028 2.37406,6.13781 3.77162,10.63176 0.38979,1.25336 1.50234,5.46786 1.89636,7.18365 1.26351,5.50195 2.02515,10.5772 2.52666,16.836764 0.1213,1.51388 0.15199,2.89858 0.15262,6.88972 0,5.27253 -0.0629,6.59383 -0.56266,11.66945 -0.29766,3.02284 -1.05766,8.06013 -1.59171,10.54989 -0.12191,0.5684 -0.31729,1.49851 -0.43415,2.06691 -0.88192,4.28963 -2.87197,10.4757 -5.36194,16.66763 -0.65,1.61638 -0.94317,2.54215 -0.83773,2.6453 0.14601,0.14286 0.68049,-0.68151 1.53842,-2.37284 1.36441,-2.68987 1.98209,-4.23925 3.56047,-8.93078 1.45515,-4.32531 2.21335,-7.10835 3.22561,-11.8401 1.01199,-4.73052 1.85117,-11.10692 2.05738,-15.63267 0.24505,-5.37868 -0.0493,-14.639754 -0.61036,-19.205084 -1.31031,-10.66129 -3.72516,-19.7827 -7.9529,-30.03979 -2.1508,-5.21818 -5.11293,-10.75523 -8.55212,-15.98641 -2.63193,-4.00326 -6.421,-8.97575 -9.35598,-12.27806 -3.96089,-4.4566 -10.43833,-10.45076 -14.99483,-13.87606 -6.46015,-4.85636 -14.85645,-9.86125 -21.65955,-12.91089 -11.15312,-4.99964 -22.58992,-7.98951 -34.75003,-9.08458 -4.52156,-0.40718 -12.78557,-0.5569 -16.87982,-0.30581 -6.151054,0.37723 -14.401324,1.72294 -19.894064,3.24495 -3.08279,0.85422 -3.93635,1.10981 -6.15768,1.84383 -3.63308,1.20049 -7.73495,2.78414 -10.59296,4.08969 -1.37097,0.62628 -5.18497,2.53208 -5.83851,2.91744 -0.25077,0.14786 -0.47119,0.26883 -0.48986,0.26883 -0.13998,0 -5.06101,2.91322 -7.06353,4.18158 -4.05585,2.5689 -9.19261,6.34452 -12.53067,9.21026 -2.51504,2.15917 -5.80898,5.24614 -7.36497,6.90221 -7.08868,7.54457 -13.65386,16.8639 -18.16554,25.78619 -5.3077403,10.49656 -8.6797003,20.76527 -10.5890903,32.24727 -0.95599003,5.74866 -1.31515003,9.318684 -1.52485003,15.157394 -0.11293,3.14378 -0.0636,5.6029 0.18417,9.18796 0.354,5.12161 0.94761003,9.49975 2.02378003,14.92605 0.90136,4.5448 2.73048,10.65478 4.94286,16.51094 1.64668,4.35877 2.43638,6.14539 4.7499903,10.74652 2.89438,5.75612 5.18429,9.45867 9.24119,14.94208 2.73939,3.70263 4.71108,6.07794 7.49863,9.03379 1.14521,1.21434 5.91457,5.77849 7.57688,7.25088 0.42302,0.3747 1.17875,1.04949 1.67938,1.49954 4.36674,3.92564 11.07024,8.53877 17.96227,12.36103 3.02023,1.67501 7.93091,4.03918 10.33457,4.97544 2.21716,0.8636 3.87352,1.48117 5.42566,2.02293 8.49395,2.96471 16.46587,4.80625 24.32932,5.62013 2.42903,0.25142 7.197824,0.40381 8.353804,0.26696 z m 10.4207,-0.25804 c 0.46198,-0.055 0.47436,-0.0636 0.50146,-0.34699 0.0274,-0.28616 0.0234,-0.28977 -0.25839,-0.23745 -0.15736,0.0292 -2.36919,0.0786 -4.91516,0.10967 l -4.62903,0.0566 -0.009,0.22397 -0.009,0.22398 -0.0584,-0.20893 c -0.0856,-0.30645 -0.24246,-0.31172 -0.28682,-0.01 -0.0212,0.14443 -0.0263,0.27478 -0.0115,0.28967 0.051,0.051 9.20062,-0.0444 9.67497,-0.10084 z" /><g
     inkscape:label="Calque 1"
     inkscape:groupmode="layer"
     id="layer1"
     transform="translate(-519.71507,212.79412)" /></svg>
