<?xml version="1.0" encoding="UTF-8" standalone="no"?>
<!-- Created with Inkscape (http://www.inkscape.org/) -->

<svg
   width="206.8494mm"
   height="211.90546mm"
   viewBox="0 0 209.73434 214.86092"
   version="1.1"
   id="svg5"
   xml:space="preserve"
   inkscape:version="1.3.2 (091e20e, 2023-11-25)"
   sodipodi:docname="logoinstagram.svg"
   xmlns:inkscape="http://www.inkscape.org/namespaces/inkscape"
   xmlns:sodipodi="http://sodipodi.sourceforge.net/DTD/sodipodi-0.dtd"
   xmlns:xlink="http://www.w3.org/1999/xlink"
   xmlns="http://www.w3.org/2000/svg"
   xmlns:svg="http://www.w3.org/2000/svg"><sodipodi:namedview
     id="namedview7"
     pagecolor="#ffffff"
     bordercolor="#000000"
     borderopacity="0.25"
     inkscape:showpageshadow="2"
     inkscape:pageopacity="0.0"
     inkscape:pagecheckerboard="true"
     inkscape:deskcolor="#d1d1d1"
     inkscape:document-units="mm"
     showgrid="false"
     showguides="true"
     inkscape:zoom="0.1767767"
     inkscape:cx="-848.52811"
     inkscape:cy="803.27328"
     inkscape:window-width="1472"
     inkscape:window-height="953"
     inkscape:window-x="0"
     inkscape:window-y="25"
     inkscape:window-maximized="0"
     inkscape:current-layer="svg5"><sodipodi:guide
       position="-215.11181,214.86093"
       orientation="0,-1"
       id="guide1498"
       inkscape:locked="false" /><sodipodi:guide
       position="-230.28192,-0.50718851"
       orientation="0,-1"
       id="guide1500"
       inkscape:locked="false" /><sodipodi:guide
       position="-430.22362,214.86093"
       orientation="1,0"
       id="guide1694"
       inkscape:locked="false" /><sodipodi:guide
       position="-215.11181,214.86093"
       orientation="1,0"
       id="guide1696"
       inkscape:locked="false" /><sodipodi:guide
       position="3.2623058e-06,205.75543"
       orientation="1,0"
       id="guide1698"
       inkscape:locked="false" /><sodipodi:guide
       position="208.52137,33.319938"
       orientation="1,0"
       id="guide1700"
       inkscape:locked="false" /><sodipodi:guide
       position="423.98582,204.66654"
       orientation="1,0"
       id="guide1702"
       inkscape:locked="false" /><sodipodi:guide
       position="639.09767,115.59974"
       orientation="1,0"
       id="guide1704"
       inkscape:locked="false" /><sodipodi:guide
       position="-645.33543,107.17687"
       orientation="1,0"
       id="guide1710"
       inkscape:locked="false" /></sodipodi:namedview><defs
     id="defs2"><linearGradient
       inkscape:collect="always"
       id="linearGradient1153"><stop
         style="stop-color:#000000;stop-opacity:1;"
         offset="0"
         id="stop1149" /><stop
         style="stop-color:#000000;stop-opacity:0;"
         offset="1"
         id="stop1151" /></linearGradient><rect
       x="953.69067"
       y="445.91483"
       width="224.24619"
       height="73.459953"
       id="rect1046" /><rect
       x="1001.3752"
       y="105.67924"
       width="369.87732"
       height="174.30748"
       id="rect990" /><rect
       x="961.42328"
       y="123.72203"
       width="289.97351"
       height="175.27287"
       id="rect984" /><rect
       x="895.69598"
       y="161.09641"
       width="456.22501"
       height="220.37987"
       id="rect978" /><rect
       x="1001.3752"
       y="105.67924"
       width="369.87732"
       height="174.30748"
       id="rect1355" /><rect
       x="953.69067"
       y="445.91483"
       width="224.24619"
       height="73.459953"
       id="rect1357" /><rect
       x="1001.3752"
       y="105.67924"
       width="369.87732"
       height="174.30748"
       id="rect1369" /><rect
       x="953.69067"
       y="445.91483"
       width="224.24619"
       height="73.459953"
       id="rect1371" /><rect
       x="1001.3752"
       y="105.67924"
       width="369.87732"
       height="174.30748"
       id="rect410" /><rect
       x="953.69067"
       y="445.91483"
       width="224.24619"
       height="73.459953"
       id="rect412" /><linearGradient
       inkscape:collect="always"
       xlink:href="#linearGradient1153"
       id="linearGradient1157"
       x1="566.68475"
       y1="-151.12093"
       x2="703.54126"
       y2="-151.12093"
       gradientUnits="userSpaceOnUse" /></defs><path
     id="path1985"
     style="display:inline;stroke-width:0.471987;fill:#ffffff;fill-opacity:1"
     d="m 104.38725,52.230233 c -29.615332,0 -53.503228,24.542402 -53.503228,54.969157 0,30.42674 23.887896,54.96916 53.503228,54.96916 29.61535,0 53.50323,-24.54242 53.50323,-54.96916 0,-30.426755 -23.88788,-54.969157 -53.50323,-54.969157 z m 0,19.232162 c 19.18478,0 34.78395,16.026583 34.78395,35.736995 0,19.71041 -15.64575,35.73752 -34.78395,35.73752 -19.138219,0 -34.784478,-16.02711 -34.784478,-35.73752 0,-19.710412 15.59971,-35.736995 34.784478,-35.736995 z m 68.17099,-21.480443 c 0,7.128266 -5.58779,12.821327 -12.47942,12.821327 -6.93819,0 -12.47943,-5.740887 -12.47943,-12.821327 0,-7.080461 5.5878,-12.821368 12.47943,-12.821368 6.89163,0 12.47942,5.740907 12.47942,12.821368 z M 104.3636,0 C 87.146201,0 69.928833,0.25146446 61.314324,0.75378977 44.64406,1.5670855 29.836375,5.4897239 17.589802,18.024004 5.3432269,30.558264 1.5715387,45.771863 0.7333862,62.946677 c -0.97784827,17.701082 -0.97784827,70.756883 0,88.457963 0.7916141,17.17483 4.6098407,32.38841 16.8564158,44.92268 12.246573,12.53428 27.007699,16.45704 43.724522,17.31817 10.484215,0.61136 32.42963,2.54784 44.491566,-0.28392 9.17038,-2.15291 -17.453382,-4.5409 8.86951,-16.01739 7.19647,-3.13758 -7.2408,-2.26088 -10.28808,-2.26088 -15.180179,0 -47.822803,1.24396 -61.512898,-4.30556 -9.126717,-3.73157 -16.157632,-10.95562 -19.836253,-20.38025 -5.448104,-14.11302 -4.191174,-47.60204 -4.191174,-63.19811 0,-15.596097 -1.210351,-49.132418 4.191174,-63.197586 3.632053,-9.37679 10.662967,-16.60083 19.836253,-20.380251 9.443961,-3.848193 27.801843,-4.439964 43.285951,-4.434179 7.038238,0.003 13.483137,0.128619 18.226947,0.128619 15.18017,0 47.82225,-1.243972 61.51237,4.30556 9.12672,3.731575 16.15815,10.955615 19.83678,20.380251 5.44809,14.113025 4.19064,47.601489 4.19064,63.197586 0,7.20505 0.0132,9.67974 0.0132,27.06683 0,17.3871 18.51792,15.76429 18.51792,0 0,-15.76429 0.3155,-57.16335 -0.46388,-71.271566 C 207.2027,45.81979 203.38452,30.606241 191.13792,18.071971 178.93792,5.5376908 164.13021,1.6149318 147.4134,0.75378977 138.79889,0.25146446 121.58099,0 104.3636,0 Z m 34.52247,214.08659 c 1.04664,-0.10182 1.56271,-0.34611 2.63935,-1.24943 1.21067,-1.01579 1.5654,-1.60498 1.5702,-2.60802 0.003,-0.60185 -0.17893,-1.01842 -0.49727,-1.13946 -0.1207,-0.0459 -0.74822,-0.1847 -1.39447,-0.30845 -1.8194,-0.34842 -2.83002,-0.32057 -4.75726,0.13113 -1.81639,0.42569 -2.03624,0.49773 -2.08805,0.68417 -0.022,0.0788 -0.0653,0.51271 -0.0963,0.96405 -0.0987,1.43627 0.21443,2.95863 0.67992,3.3064 0.1903,0.14215 0.41436,0.18604 1.15515,0.22625 1.48187,0.0804 1.90405,0.0795 2.78866,-0.007 z m -6.11481,-0.60267 c 0.16395,-1.09161 0.009,-2.76703 -0.3196,-3.45616 -0.12828,-0.26899 -0.19809,-0.31732 -0.52261,-0.3618 -0.51678,-0.0709 -2.047,0.0856 -2.34508,0.23977 -0.51918,0.26847 -1.04518,1.07616 -1.04518,1.6049 0,0.52744 0.18799,1.11522 0.436,1.36322 0.34174,0.34173 1.2314,0.66759 2.36121,0.86483 1.31759,0.23004 1.36368,0.22185 1.43526,-0.25476 z m 21.16046,-5.3184 c 0.25935,-0.32035 0.30033,-0.90769 0.133,-1.90448 -0.17249,-1.0272 -0.41014,-1.85113 -0.61974,-2.14857 -0.14094,-0.19997 -0.16795,-0.20399 -1.05689,-0.15737 -1.54205,0.0809 -2.12825,0.35776 -2.3413,1.1058 -0.13502,0.47404 -0.13833,1.55713 -0.006,2.01949 0.1307,0.4573 0.43939,0.91152 0.70688,1.04015 0.31223,0.15017 1.39551,0.27297 2.26372,0.25665 0.68009,-0.0128 0.77768,-0.0353 0.9205,-0.21167 z m 6.35514,-0.1128 c 0.73096,-0.16495 2.08287,-0.97825 2.93038,-1.76291 0.60287,-0.55815 0.8125,-1.05556 0.81519,-1.93431 0.003,-0.86122 -0.4069,-1.45902 -1.32282,-1.93089 -0.25944,-0.13366 -0.44299,-0.14724 -1.3771,-0.1019 -1.25469,0.0609 -2.1227,0.21335 -3.56579,0.62622 -1.06543,0.3048 -2.61192,0.99855 -2.69216,1.20768 -0.0246,0.0642 -0.002,0.35909 0.0499,0.65532 0.10945,0.62244 0.89683,3.05279 1.03323,3.1892 0.20003,0.20003 3.29969,0.23876 4.12918,0.0516 z m -42.80776,-0.72425 c 1.35333,-0.25683 1.43664,-0.33172 1.59652,-1.43497 0.0981,-0.67693 0.0362,-2.64798 -0.1001,-3.18569 -0.13418,-0.52934 -0.25658,-0.59827 -0.78751,-0.44339 -1.21152,0.35342 -2.64997,1.51692 -3.16248,2.55799 -0.52874,1.07401 -0.42188,1.82985 0.32016,2.26472 0.66629,0.39046 1.09323,0.43876 2.13344,0.24134 z m 5.63037,-1.20436 c 2.11892,-0.36155 2.92186,-0.59552 3.83372,-1.11715 0.81663,-0.46716 1.81311,-1.21661 2.22748,-1.67528 0.54424,-0.6024 0.62299,-1.74217 0.15522,-2.24605 -0.28408,-0.30597 -2.25014,-1.33594 -2.96533,-1.55344 -0.63968,-0.19455 -1.31622,-0.20773 -1.9666,-0.0384 -0.66898,0.17424 -2.86689,1.14681 -3.11832,1.37982 -0.40523,0.37556 -0.69555,2.50948 -0.6001,4.4112 l 0.0572,1.14149 h 0.30259 c 0.16645,0 1.09976,-0.13601 2.07406,-0.30226 z m 15.56723,-3.7926 c 0.67175,-0.15086 1.00752,-0.32053 1.19223,-0.6024 0.12572,-0.19189 0.13399,-0.36513 0.0687,-1.43984 -0.0407,-0.67193 -0.0756,-1.69618 -0.0776,-2.2761 -0.002,-0.57993 -0.0122,-1.05437 -0.0229,-1.05433 -0.0107,3e-5 -0.27837,0.0975 -0.59473,0.21657 -0.72167,0.27164 -2.52637,1.27218 -2.77825,1.54029 -0.10395,0.11066 -0.28342,0.47268 -0.39882,0.80447 -0.17146,0.49304 -0.21119,0.78095 -0.21747,1.57574 -0.007,0.92187 0.003,0.98046 0.19315,1.12641 0.43895,0.3365 1.43897,0.37793 2.63568,0.10919 z m 5.3503,-1.58787 c 2.29929,-0.30677 3.49951,-0.84275 5.03037,-2.24634 0.68173,-0.62506 0.90774,-1.04555 0.9104,-1.69393 0.005,-1.14645 -0.31355,-1.61507 -1.50771,-2.21977 -0.71889,-0.36404 -0.90967,-0.42337 -1.44893,-0.4506 -1.52319,-0.077 -4.39364,0.80209 -5.11223,1.56552 -0.31261,0.33212 -0.41755,0.63491 -0.54064,1.55982 -0.11245,0.84498 -0.0132,1.68913 0.31101,2.64197 0.22663,0.66634 0.32963,0.82852 0.59435,0.93582 0.25412,0.103 0.32669,0.0992 1.76338,-0.0924 z m 27.15838,-2.62402 c 1.0907,-0.16384 1.60489,-0.3345 1.93389,-0.64185 0.30455,-0.28449 0.34809,-0.70129 0.11982,-1.14713 -0.24547,-0.47937 -1.35044,-2.06234 -1.68537,-2.41442 -0.3172,-0.33347 -0.32896,-0.33766 -0.80879,-0.28813 -0.27171,0.0281 -0.70035,0.15704 -0.96995,0.29193 -0.38743,0.19382 -0.52132,0.31864 -0.67612,0.63029 -0.52122,1.04925 -0.23856,3.1784 0.47324,3.56457 0.30088,0.16324 0.5532,0.16399 1.61328,0.005 z m 6.22206,-1.17007 c 0.60152,-0.19449 1.50037,-0.55179 1.99742,-0.79397 0.77868,-0.37944 1.00492,-0.542 1.63529,-1.17514 1.31119,-1.31696 1.75416,-2.44497 1.36101,-3.46589 -0.0673,-0.17484 -0.26304,-0.32204 -0.74386,-0.55944 -0.62922,-0.31067 -0.6834,-0.32185 -1.51705,-0.31298 -0.75872,0.008 -1.00667,0.0535 -2.02642,0.3707 -1.18892,0.36991 -3.99631,1.67604 -4.51455,2.10039 -0.25188,0.20624 -0.25309,0.21154 -0.13288,0.57578 0.0668,0.20218 0.30788,0.62364 0.5359,0.93657 0.58729,0.80597 1.18869,1.72471 1.46493,2.23793 0.21616,0.4016 0.26307,0.43968 0.54159,0.43968 0.1677,0 0.79708,-0.15913 1.39862,-0.35363 z m -21.16657,-2.10073 c 0.90289,-0.28523 1.45539,-0.6712 1.73195,-1.20996 0.1906,-0.37127 0.21497,-0.52058 0.20484,-1.25552 -0.012,-0.86642 -0.22228,-2.02976 -0.42876,-2.37103 -0.0656,-0.10837 -0.17987,-0.29644 -0.25405,-0.41795 -0.0914,-0.1498 -0.16765,-0.1955 -0.23668,-0.14192 -0.0559,0.0435 -0.33054,0.12341 -0.61006,0.17768 -1.39802,0.27145 -2.17142,0.95149 -2.64384,2.32467 -0.21841,0.63476 -0.20348,1.04734 0.0674,1.86235 0.41985,1.26332 0.82538,1.45619 2.1692,1.03168 z m 5.88609,-2.70174 c 0.92343,-0.41039 1.85984,-0.90003 2.36687,-1.23758 1.45045,-0.96566 2.72708,-2.4752 2.89498,-3.42315 0.0644,-0.36306 -0.10695,-0.99173 -0.37131,-1.36296 -0.24045,-0.33773 -1.26332,-0.84308 -1.9715,-0.97405 -1.01335,-0.18741 -2.40978,0.0999 -3.75645,0.77287 -0.73377,0.36668 -1.9693,1.18932 -2.40876,1.60379 -0.31087,0.29317 -0.32192,0.32278 -0.2643,0.70715 0.0716,0.47763 0.5621,1.91398 0.92178,2.69945 0.22336,0.48778 0.36461,0.83934 0.6836,1.7014 0.0394,0.10651 0.14042,0.19331 0.22441,0.1929 0.0841,0 0.84034,-0.30633 1.68068,-0.67982 z m 26.513,-9.82071 c 1.00075,-0.12237 1.13857,-0.18461 1.35705,-0.61286 0.22506,-0.44113 0.19156,-0.83681 -0.12509,-1.47864 -0.32268,-0.65399 -1.31545,-1.93353 -1.62395,-2.09307 -0.32655,-0.16888 -1.02897,-0.10797 -1.58347,0.13732 -0.62874,0.27812 -1.21435,1.42776 -1.12611,2.21069 0.0576,0.51119 0.5277,1.44451 0.83927,1.66639 0.28514,0.20302 0.86254,0.33892 1.24667,0.2934 0.14201,-0.0168 0.59904,-0.0723 1.01563,-0.12323 z m 5.18126,-2.08359 c 2.60012,-1.41948 3.19495,-2.01522 4.55478,-4.56164 0.2641,-0.49456 0.48018,-0.99929 0.48018,-1.12162 0,-0.27935 -0.29077,-0.46699 -1.3687,-0.8833 -0.92626,-0.35772 -1.13564,-0.35205 -2.33222,0.0633 -0.95497,0.33145 -1.74536,0.75819 -3.27058,1.76584 -1.56417,1.03338 -1.97955,1.36517 -1.97955,1.58114 0,0.2696 0.29678,0.78999 1.36009,2.38477 0.93116,1.39662 1.00753,1.48688 1.21534,1.43633 0.12198,-0.0297 0.72526,-0.32881 1.34066,-0.66476 z m -20.64574,1.01105 c 0.62961,-0.30975 1.05215,-0.57901 1.23442,-0.78662 0.25395,-0.28921 0.27222,-0.34855 0.21821,-0.70864 -0.22553,-1.50395 -1.29947,-3.88627 -1.75193,-3.88627 -0.47707,0 -1.64679,1.13558 -2.0834,2.0226 -0.35913,0.72962 -0.54338,1.66782 -0.41925,2.13472 0.14159,0.53248 0.58815,1.32854 0.88577,1.57897 0.35874,0.30185 0.71601,0.23571 1.91618,-0.35476 z m 4.673,-3.10989 c 1.45249,-0.76258 2.18838,-1.25748 2.79082,-1.87686 0.84002,-0.86363 2.2979,-3.19931 2.43304,-3.89799 0.0481,-0.24849 0.004,-0.32702 -0.44322,-0.79628 -0.65883,-0.69069 -1.23112,-0.96873 -2.09346,-1.01707 -0.76611,-0.043 -1.80288,0.18662 -2.63699,0.58389 -1.4593,0.69502 -3.4862,2.35878 -3.48545,2.86095 0,0.31447 0.84005,2.69527 1.21762,3.45284 0.36159,0.72543 0.78883,1.25912 1.00804,1.25912 0.0696,0 0.61393,-0.25587 1.2096,-0.5686 z m 6.6774,-11.55677 c 0.95349,-0.43807 2.10866,-1.66892 2.10866,-2.24677 0,-0.29599 -0.34717,-1.37077 -0.67964,-2.10401 -0.14079,-0.31052 -0.42143,-0.72413 -0.63881,-0.94152 -0.90521,-0.90521 -1.96241,-0.50896 -2.72606,1.02177 -0.27769,0.55664 -0.29963,0.65812 -0.28815,1.33404 0.0208,1.21801 0.5281,2.41601 1.22356,2.88858 0.36767,0.24984 0.54269,0.25821 1.00044,0.0479 z m 4.88777,-4.24903 c 1.54948,-1.4164 2.34042,-2.24334 2.90175,-3.03388 0.67814,-0.95503 1.41498,-2.38061 1.55587,-3.01017 l 0.10555,-0.47159 -0.57616,-0.86267 c -0.67483,-1.01037 -0.62766,-0.99509 -1.99831,-0.64739 -2.34373,0.59454 -3.81568,1.44295 -5.34018,3.07799 -0.65546,0.703 -0.72829,0.9873 -0.45931,1.79309 0.31475,0.94288 0.77617,1.64767 2.00899,3.06856 0.42096,0.4852 0.80263,0.8822 0.84813,0.8822 0.0455,0 0.47466,-0.35826 0.95367,-0.79614 z m 11.52272,2.20503 c 0.69442,-0.35117 1.34856,-0.70812 1.45363,-0.79322 0.19106,-0.1547 0.19106,-0.15476 0.0362,-0.62188 -0.12131,-0.36576 -0.27804,-0.58522 -0.72204,-1.01105 -1.12153,-1.07554 -1.95224,-1.56478 -2.6569,-1.56478 -0.84873,0 -1.49957,1.00289 -1.50812,2.32383 -0.003,0.44121 0.0545,0.69745 0.27164,1.21248 0.41714,0.98971 0.89963,1.35244 1.56184,1.1742 0.16568,-0.0446 0.86939,-0.3684 1.5638,-0.71958 z m 4.37488,-2.16245 c 0.55826,-0.31607 2.22627,-1.58275 2.59542,-1.97097 1.0261,-1.07909 1.8242,-2.6518 1.82764,-3.60145 0.004,-1.18522 -0.35804,-1.83264 -1.1284,-2.01609 -1.01923,-0.24274 -3.11322,0.75496 -5.82418,2.77504 -0.57327,0.42716 -1.16816,0.86883 -1.32201,0.98149 -0.35301,0.25851 -0.35606,0.47237 -0.0144,1.01121 0.38719,0.61053 1.65356,1.96069 2.43554,2.59668 0.74616,0.60686 0.75248,0.60785 1.43031,0.22409 z" /><g
     inkscape:label="Calque 1"
     inkscape:groupmode="layer"
     id="layer1"
     transform="translate(-734.82688,212.79411)" /></svg>
